<mxfile host="65bd71144e">
    <diagram id="-M3y2K5VHK_OwYSa7C1v" name="Page-1">
        <mxGraphModel dx="863" dy="418" grid="1" gridSize="10" guides="1" tooltips="1" connect="1" arrows="1" fold="1" page="1" pageScale="1" pageWidth="827" pageHeight="1169" math="0" shadow="0">
            <root>
                <mxCell id="0"/>
                <mxCell id="1" parent="0"/>
                <mxCell id="3" value="http://ics2o.mths.ca" style="swimlane;whiteSpace=wrap;html=1;" vertex="1" parent="1">
                    <mxGeometry x="10" y="70" width="760" height="480" as="geometry"/>
                </mxCell>
                <mxCell id="4" value="&lt;span style=&quot;font-size: 24px;&quot;&gt;&lt;b&gt;Reverse a Number, in Javascript&lt;/b&gt;&lt;/span&gt;" style="whiteSpace=wrap;html=1;" vertex="1" parent="3">
                    <mxGeometry x="193" y="30" width="374" height="50" as="geometry"/>
                </mxCell>
                <mxCell id="6" value="&lt;font style=&quot;font-size: 19px;&quot;&gt;Enter a positive number to reverse in loop:&lt;/font&gt;" style="text;html=1;align=center;verticalAlign=middle;resizable=0;points=[];autosize=1;strokeColor=none;fillColor=none;" vertex="1" parent="3">
                    <mxGeometry x="4" y="116" width="380" height="40" as="geometry"/>
                </mxCell>
                <mxCell id="7" value="&lt;font style=&quot;font-size: 15px;&quot;&gt;Number:&lt;/font&gt;" style="text;html=1;align=center;verticalAlign=middle;resizable=0;points=[];autosize=1;strokeColor=none;fillColor=none;" vertex="1" parent="3">
                    <mxGeometry x="154" y="172" width="80" height="30" as="geometry"/>
                </mxCell>
                <mxCell id="8" value="&lt;font color=&quot;#8b8b8b&quot;&gt;e.g. 123&lt;/font&gt;" style="whiteSpace=wrap;html=1;align=left;" vertex="1" parent="3">
                    <mxGeometry x="134" y="210" width="120" height="30" as="geometry"/>
                </mxCell>
                <mxCell id="9" value="&lt;b&gt;SHOW REVERSED&lt;/b&gt;" style="rounded=1;whiteSpace=wrap;html=1;" vertex="1" parent="3">
                    <mxGeometry x="134" y="270" width="120" height="40" as="geometry"/>
                </mxCell>
                <mxCell id="10" value="" style="shape=image;verticalLabelPosition=bottom;labelBackgroundColor=default;verticalAlign=top;aspect=fixed;imageAspect=0;image=data:image/webp,UklGRuyiAABXRUJQVlA4IOCiAAAQMwKdASp8AoQDPpFEnEqlo6KhpXgJ6LASCWJu/Fpqx3P/xfHJWc35pXNv/Yf5HuxM9eO/un+L/7X9s97it/2j+w/43/Z/2X3A/8H/E/kt5T9Wf8z+//k77/3nP67/wv71/mv2p+X/+f/9X+d/0vwU/S//u/P/6Av1o/Zb/be2z6m/3o9Q37g/uT7xn+s/9X+q93v9b/3//g/2n/R///0A/zD+4/+T8///D9Z3/e///uff6H/w//j3DP27//Xro/t3/tv/////tg/sP+9/+3+r/2P//+h3+lf6D/4f7j/h///5AP/37Vn8A//nWn+Zf4P/Q+lj5v++f8PxH/N/tP9f+cHxQfp2Nvs21Nfmv4u/i/5D2+/4P/h8Ef2f+i/7fqC+8P9v/evbJew6nftF7BHuj9o/6f+W9ZP6L/4/5f1J+037OfAD/Rv7z/1vYX/w+Dt+F/7H7gfAH/O/73/9P9T7xH9//+P956Ev1r/U//X/bfAt+wv/h/y3td////z/AT9zP///0vhg/av//kF6zbqfKxm8762TfABEWrjqQAIi1cdSAhILP3dj4ZPgAiLVx1IAERauOpAAiLV8y3JPkAf/+9F8euhQclltajNNwZudd+tk3wARFqbE/SrbURdc9qcJS2aqTGRXu7Zt5OL1od9mbz7q0lEcu+/EsDGudcmeuIsTFaJ0fV4TMpNKklEBeBCzLwMZ2NwVWPQNXZ7TmpW52NpwYRavAU3DfQD8DaSFGYDEYrLTKSDt531qzYIzDGVG08CMa7bk+V0cHt/t4ar3qAPn4TQlQG6pZUJ5sYYxcrjqQAIoJBcmX2pYzok/E1Wlb8cYiLVvu9eQFRg2L2xwlh0j1nrx4hq3zTIXM7dahJtDd1LK+/yq99Jg3o/oHdiNsANfaMLzk0RCABEWrjO4iDFvPSiGK1B1CPB/FVyXmTJfYWOhObc2LISPkvc4htUBh8Q09RJ9SAz0TILlE7KFCud2QHvUK3vKHygTQwI8ECqr10PFowC2gFvi3ggLytO0uifA/QO8bAr/Rt0WvEB98t3TBio03aNgc4Rv67YMmrF54xz+KRLVuYTGGECYfBDSq9iHlyHGcuM5E+tk3wARylhJTypLE2OrRJ0kDjDcYac0rGbzvrZN8itI2q8G46kACIu1QE3HUgARFq46kRWkaAKWi+ZPDxuP1k44lsm+ACItXHRUu/pakHq3N+fTHHLOtrkaN3Vjjarwbk9N8kUEBPXq9xbBOqBmsxPTd+UfxT+rAVyy8b8pmGMtrQAkq/8O9aUQzAOJ/4WWV293muGVqfvwFrv3J4nceCHWZn9neMNrlyXaTN6HAWIuqo4hyWkdgJuOpAQkAz+9MKe34r032tq5AjpkJmLMs9sTWmzttTAMJ4nhs+vLTGA4U7ooGxzXH9AUP6Q44/a5aq/DaxejxAkq+egtYDMQinsMywXKFgx0kBQr2ya7ghKcguIsfzujGsBnU4ZO1SA/3xRqIpaPBlkVFk9mqzZUrGbzvuTMtVAYrF6Zfk9H+L5mICZCS18rHQk+KzIeTno8kaq1dDD79Im19Lqj/OS31HEiDedgg9F4gwHlS9kcK0xDPHNF0Yaqz+NUTWxrbSXFNgR5o4OzvxMM8HAlbtt5GhcaGouP076qxxzvLTPiNnhlpNuhm1L5BLJawlnJhi68pmw37sMtILanu7BoDnfivEl+RNsRtZWprJyGtgviX89+GPZOTvW999s3Z4nvfG4ywG91KImGpqVXgF/TbtChBWxPr53Iu7AslW+dsv18GvwMu5kSTYmcuKSeJh/yXH5lNh1qLK4X+gwtMWA35xTwKFGLvAbMusG62BIWkG3jOZqL3cTBGTd2dmFAtNPVFC9FknYcd4+jiDUCVw9JvdW5HyeEEbyxJws46fzVC2KmeGbgk+DG9uCJhA5qBIFeQF1SeATWfFv4/hg+9mr6EzKxS7+0pK88sgyrzbaHZ3iDl2dm0J7qzxpcz+ybOkuURMUetuapxQCxQT6pICifXIFn8ltp5jLUC3yhNtjhXWKw6zG3eS1eBfLGXo7Z7KOanwD3X9kPXqhjBjG5ptWSsWirtXIdxxNBRpCKA4npwBacsW50s5BNx3j6OIK86McKkl8knbgJYsm97cahF+PuttVIQVLMn0ic4FeAZOvoG+ACEE0vbONs1VQ4y8NJb4AJbhQFXH0B+bC3rY/D9bIzWaHmSi12vsA++7JHysU6sPfvpCi2TfABBvE++/UAMJpNvq0U762dBm8gJ8kQteMwMjN6m1eDQm1FVhfNmIJCOQDwu525/cSSRawE3HUTqZ0NVw/0kiVNah71XgH2iMNAJIslJvATcdSAB+WtNgjYHqoqJjCItXHUT8qc5vdwPn1zcvgcVPohgNkwYuc5m0QWFAjMRY6S7MQpU+tk3wARFq40Aqr6k9eDbaz5e8i0xxyzElsdA5ciCJDU/Z7iZ6UnGXFw417tSM5U2CWFc8ntPLdVC+Ap0l5XH8YDQ2q8G46kACIcNmvuBcdPlWPRgJwJVgUgcEHSUCou7lVTgd5l/wJJ75L8vOuZmzWTpFzZ8teNdCaD4MUGRN0gj3eYNPWmAuHqhUW1vvXZWM3ne26u46MVs+r9+HHz7N294durEnttalYZGdOheC3JUUTLyWo41mWh6BE46IS7mqwinSTGb5Ez4slhK47yYSv2MfBKxq1m6FrhXqxWwC0565jxhFQE48jX8CbaWXFqISFXNzXRjjdbRLU2Z3d3ys8ePJaBdbbYjQaCEWmthHa5/CedRDSeGKlh05TDJIbtFleHmyypkDxBpgWUaxRjiu8C/kPhy41wrkvdWoumt8IQpT3hyHEdNmcYH0gNGKwqMj//znZnCLkyoaB5EYInwd41yJuKIcuVBO5iyZJnkv8kvutt7XZ1AMSTyP1UNJimi12otGzmoOPai/GZIqrAVBCMqMxGQckSETmNOk2OO8bATcdSADtErh/bn+ytXUQW4sqBDr8/+pokk811SY3PsE41o0Wr8WNlCTZN/iSJInPDDnDs3vOPrupTLjQwpX9lq0OcU2OlHysqLrZN8ABdLn95O9YFs2Px4P44skGiyuaRY9XYnVn/KmJuZd79NjOPScgVythwExnf9oazHk5MVvKOYKH6vccQICFQhBUC3UzzvrZQVrwbjqKFUTMx1FdE1Bkx7s8GdVrg0lLtoa6TsMWChfGM78YbJd5HxiiBOaBFoexts8ckCTlFqlOTW5QWvDsvKNuAbSrB2wrz8emnQU0/T4PbwkGIMJ/SkIiobvVSABEWrjvGwD13Niy5iFSL0j88hzgwaLCJhKo+BKyW+eOcrN6ut26OuCiLNMUVPWGTfU2ONlXOufby4Lhkw7PvRjZKl+n26QRtMBYnDqZQqEj6eDjwXNa206H07ciF3w4g3zV0DTl0kCfLT3gJuOpABeqTQtlOj3p8vsx2RXsSk8eANecevPmb06gJ2EcFzPWTNhfPzEDi09ehpBHbSxIDtAbuBLhg2SoICItXHUgAvVJoDqdOpGPqzac78KvntZuKvCaODRX8VB4zg4+tk+3pqWucf9HjdJ/Kxm8p93Y/aVU9M8ZzmrSy9zVJOVuRHmF+eLPp3fWAed9cgDVMgZARjaO4la3R/3bAsOaXkMg6O35YW9WVrxUsGVRSwz5N6I//u35w4/sNmBMYlpvznv7WOe+mv44qtjnwABJ7xobU/2qMgHvWyEgrwtf+TfHsq4fvypAIDxoBraZgLm/Dmb4AIi1chaD/OunTiDUllsmm+S4xTkxVXAIWrjqKlWAxa2CERauOpAAiLVuEui+dMqVvKiL066GnNI84RJgIi1cdg04bl6N2egCupk1UgARFqj6/rUK7q0oiJuXf1sZaE1eNM5jxwI2amlD+u1pcBRdnDxszFnkvASawXZNAAhNWuu2TfABEhLq/aMOla2oBuORmigUXyXM/OACnFZsvCOw+hMhDxxpjH0MKXzVIxkkT7kozwBbIm3pkEGx2cNgar2W7H92X4RqxzYzHjoRAjPb1JSMxhc96tU166lgMtt+T1sFmmMI9ggfg3IknA21ejDjdnuVSRPEHeNoFAnqVYc2rPxK6bKjxobP6XNYaoP0DMIbmhA84y/sPjbbMGV/xqoYogJlGw2eVi7lLwIhqeFn/VwZDsQ7iESe8xEdQWRnHNN71zCP/txWd5S6ymM7deJsvLVt6aVjN5+RrH1WjhWTs/dWFPo1IeQ3ByCPJjHqiSUfzMR9xaccHsjLM/uJxlWcv++1a/lY0PZKJXzc0ZOqr1eoTDewm/21SJhtPcMP+X7naKvrV/o2gouvAvve89YIUqIypbz346g8oG+na5sgJHygA0y4SAPGgqtkp7V6woNlAp93AqZjN533JRtC9ofz+ipPm8Hq7to1T3y7XD7A0xQK+cv9EfJYhMITQ/nM5mwz5O5htACcqnKFNL2nzb/wP9CAESav2hfJbGSSPhGL8n0ynBY0s709FOMmoLaIZHMnCyHiR9kcrzzr7aotwnbnUBqvBuTzu/UpzNRy/h9QNxAtYA2cd6AGfrJ+Ul0sCgMQ7ZBq02phuq5VwojyxZ2qjn0wR7G9IZmyECeaQxFv3qgjOuqDkhTV7Js6FTj1Q9Ev/hrLOmW26ndo5WBK/xFPVQV4Nx1IilCzPoUElXNA5/+wLDKWQt0JBSDHjZceiCfJDSXRhembZ9ehy80P/M+vZuukXrpwH9QumPfSlKLkde7XiJTB6DFPxfMg/2SCifvmH2zSZnM8ktg5E+tlBUZeOxw48G9/vj56mpc5O5VUYuKcp6TUwgabxpNNpIPT5yaO6qO1xHZleMW3lAv7iv4jIBe8B/yATWq+5h7FrmbzwcYGTt97k7BEgaryrhaKPfUZNNnZe2XCd9q7qwM66SXae8PsWA6IHNk44L0Kqk69oy5NYweXlvNNlDKwfkXvNyG1lXz+I418xbej3tthN1DyLBJnklyu5QOYhLNZgnuUF+PrgGaR786LzqQAIi1bm5zUXs+oQgH9phWEzTydWyvqndUhAk4tTN7lUrG9L/GhQWkxx1IAEHxODlP/dL3rzzXkCNk3qfz+7UtYG9A1/0hNj+Qd1LOEaLM7E/vnywwFcdSABEWrjXaz7vSR1qjkI32TVZyqUo3ofheGAKgqvnrWDslKRdAoAJfMhlxAZuO6+BMsGPweMZ4QxdN9PlZUXWyb4AIi1cZeYrxB4c+i5pysBFW6TmR0cK0V8HJP67tKlkdCSPf7jr77BtD75cb+d7YWan9LGV1MA66APKyknvmOx+zPPByONqvBuOpAALu+X08hwoRYvfAJ/z9vHuQbsKN3+WVfRklCRNnhQa89nRqWSeqWiwXXEP2OdawHFa6iLDM88HI42q8G46kAAwt1Zcy43kzqYDjY+xWt/8qjYSqeCA59ZdBk3lwlWdRdMBr+SJ+Mrg3HeLHnxE9dhn5vlNx1IAERc2N7agdAujgJcPazFxFGoVyfS3w8xQB4AE6on1sm+AAu2KwpRQf/Jf1h+LAa4vPMqTf+raaCOqUeJepQf0sWigQewMjNA0yXHDOQpifstkM2iKzUsidhbued9TfH9SbipqaTxl0pNOqU6yoPo3BuOpAAg00dMKA7B9nF+uIXuqNb+hBmxgmO7Fvtm/YeXLYkk5YD87kRmveIShMEMPG4xiuXDcKNyJVnIbhXGuUqIrVd/NVEqf3/HlXI/zb07Qk27ufg32Joa8GHRfN1g/EqOC3DIDlIMS0fyr0bD++bOhvgSdjKhKSS9fw2pDg5LW1JLIW15lfvfN9budRBQQIydk69wqOfraM+RCOAqT7TrqWKaUaMut99qFHvDmjfPzBIeyFJ4wpQ/w90byTIboX6UFmoBSXYYizE4PupZWY6GM5GmZEh/j64uwQnpF03hL9J7ez+pKJaGz+pK1zaYlR+HDPFaGz+pKKVGz/DKJaGz+pPGVTgWOJprqKimOJgEVp0RwpLfsUYzIkc8faS37FGM7WnRHCkt+xRjO1p0RwnKAP7X/UrmrNXni0P5QWZ+EB17ZAAAACWYG6A6WkB05IwTS92SCvenK0FUU5cgAAAB+p7DqjP8PoAFiO0+9RL7c19p5wAi07ueP9VJmOD5sRq8Sd4QwAWFiwiih1sU+yV0t1WjLs/BWIpgQRVKdpdA221FAb+WjJAAaGf05Ssg80FHvj4IZIYNo3FokJ+ISY/8dniUxi/qmcSLrI65KSnyE28QNNl2VUMvGBXq9CthbGerx6SNABaDh2TeoHlfKJhZqTHn/aGwH7Vn6MFN6F7fTYxEDF+f3G4pyvrLKMko4p+McjhZBeYcNyB7irdz3T3X3e7WzdddGjYc1bEPDSi/FiXNiFeUptQTlTqqNq1ns+bbw0hdSDXgRJ78NwtC29ifWO3M2b8xVm8uOKGHQ9IVjBRZB6Pn3EhfiAO75yFCmjJHHGs2ToNLKjY1NhPGd35WtqpMgaew6tTtDvMK6qsdE/XWLI4o016KaNhMRbWVOohUQYSHys0+1zZ4btgfWOrJaDaJXYg+1IVKqCDFpDR1bRCei/lXbCI3B7zHQkJSOYAAAJ/9VqOHhD3Noed2MgTF0qdpuRbqmGYAJ5QEjUbgyTWUXe0qdxKEWRioZLsC8UaOiWios8ZR3W3ORd3pJqMP7NI3SbXPgttuwgdl7hn8xo4zQunITkicw2I7MsRxbX9gob36Bg4TWqFx5RDo5djuxBfAldaAU8lXJniv6e4WR74bNrgE9Jw80lpynNHu6uq0JRNKb7G6M/Q3Tt2wMCzoTWEM7hg7Rh+xZSkzjRZALneyjJaPIFSroi6XfG4MMD94jmGD5wmUDCxrIJ5VLrbn66xZHNdEldgL0ZJ2Le9mbeDRA6pVsByD5C1JUtvjaQ62JqdxQs7jf/rk5mVxRJFji5RMuw0OtJoliF1B8dvCIhTbpfI4CSljFwwO+rCWeRHpAeGCD8ftHeoc3829ntrKw6lNIZfn/oqsLCEaglVss0XLAFBCmdg9cVdQs15kvwKnYDolQvpGxRlfqdeXuB7a2bQqHk7YAAnwGqXRcel7M3l+RgW3VGZ2uvOgR5ju1dweKUUGmfoTOFxIa7z6qfZZlXbhGamwv0eexWzJxnDmRh0TT/pB/TfROxw5AkKvAkIm8Zg+daimxzTvVAl4VzcrXuyKi4Ek8EfyZQii21avSxMMnj6BN8XLrN3J97UM1vRoC7g48MK+nlMQnRoBgXeIamCTQ3M9hbVdi85u0GItDCQ/pdwyO3BdXsaHZR+YyFbif1j6uPvHc9OGLRR1FOAr0g8MBo5koEX5/37cVMnA3an9aBRDEjemNvJGIFk3RDRqRY3/WaShl/uXkN1mhLxiFWgFG/IzjO+K2kts5GvqNGSH3GDdsTnMZLIy7S/hbktQgHsETt6EX3Zo0Hp/9qVr4iAWetyfvhIu94z7LAj1WounkqkZHtB3GEMHtTpskZQY4oL0PFoPjxWHHA5DdIAAAOFPFV0xqIz/7PCBSnO5t5VMW/1uGNkI3xQm+y8BO+t4perWbgf8XryUC8Ev47kP39ZA2lkmjEn3Xtk1VFJw8Cgfgmny9u/P+swDudcffwHkBdkY/cAwlkb2UPFix+0SwVUoSg19vPctoYdjDWtOBOHMeCVza6J/y6hc2DvSMEsERIxyZHwRLsZqBwv61fzNuJc4ZAKJeV94pB931WyaLQM5o6cBhcju9hMKDiLovBX46aKSQY3vwGG8vkLnlDibdnGgax404NqfKJAusuJVCjlkRZ2Ayime0nqmSqIxifINSTggzdsFE7YAEH/UKXLrsTfAWE7lq2GEg37CKi+T1hZWHXcLjQmRiZYxvDGV0aV2mYQKWKon3cq3vSonJMO/YF5AmpUn+3VjSWGHXaT5lvNyF9tkzeIn1xhCbCjufu2WtePwiwKPCY0WZyLZBOU0vdbyfmM+B0sWP9tOXOcTrzsc968nZEa4q6z+bgkwlXJjilrW9Ib/D82N+mzP5Yfd+2Da1S3WLeNDjLrNZu+19ARkRYJxDZsGJOYCdez1xmOSkBo9p66On6WZ1kVPBVy6+xzbAT3ddY8LAh3sYHcU4RUSLdY6XWc8XMcw6844WRcAVE5dH/TF2mrA+bx/GTBWb+rstlSYXFgUzLyONNPUKZun+jQM8oEiz/1Uji4XQzB6KvhdC/MCUu7dYyRYKvQ5bUjDlxTxarWjbNHoVc2NVhnBEOucj4HpsgJApM9X7r19CsvEFsUenk5j5YttpUUx8ktHzAV+mxexXKVI1pPSxhE4+utAnY3WjGGPe/5CSxYJG1xTLPJVEEHKMS5ubvkfliBUlIW3sfQLMZvdM4Pdec59GfVtZh7NM0r3U1n4AAAUSX5VlcpiRtqJGahR7WBCTtJHD3Hr+mtx/f54cz+Mlbx/hTnRr8AbkUX4BITGn66jBY0TnwuwZmNRqVt/tl9QwB/yGbsEBF6JiQp21EYP3CDGF6YTBaDGB5zP3jq9D7hbrhmWNyJeVwye8/wMopYG9Ov+oeC3vB+6AxNs3pym05UXTs2gt/AFqN9FgyhJKP07aSiAjig+AtxxRlRtLNmpWM6Bi2k1dB95pg0vgpMAbV78mhShshL2ZcDgXPC3GgMNFUqbw+yUBvI19aqAVWwklNe/4GVwWSUNSrbmACabiYgNFNwV5Kvbt5tVSOkIwvIIrUtQzgy0dV0buv2rCbTfUGwxR/vAibsBONuxNZhfYZHYTa4UpwAAAAACfm9wnsC9SodKwDd1SCmUJkeXEMniFmUn8WULVUgPW7eqf9gyehuOFj05mAfZHRgHeacKfmFU3/ELf0b/rUCCXgxvYydEahtzO9FKwCkPiHrzF1ecyzuvCWfIP4OEVIu3C/a0Jrtz4sjPLwpVRhJvJll6H7fpMib4wq6yS7xuV1+CgvttjpvqYSkECSVu7cqzzv6ct9q2PDEx9bsATQ1B8VUKVsrtRHeMv6/fy2fLjAwvGIXu95oAAAAAAAAAAF8wzqc/WA4a0P12SCqy3Qj+9zcY1rvbeqSWUPvuxoefn0UdCy3fpxwE4GXj2iDjEeYXHGtrY6lF130ECmHI26GwVKg0C14LWERuPrn9LWuSOclsroQAAAAAAAAPPRFegwOU3a6BnfSu7TRjjzGYpZqeReAoHVqYyjIdSDiiI5Ii8eksby7hFgCdOmvDZloGRa1OyIVkx7qzn1dLqZ7S40hRSn9nkZTZeAUkuENk2siDUVKWETlQe4yTJx/3tcBHVcDovKj2fuhPWfcVUb9zsVAY9yVeP5QnKKF/8sMjVhm4Dr0aAkSsKuTXF/OM7WBM8VwvP9zgAKDgppguzcZKUZDAv4mmzRc95xRTxQuuMFST30AS27aIKqD9Rlhg4A1kaCjad8SG2Qx6nY2PHw/jnqJuOSVaeA7ZxM+dNyO7ynTfnruaR2zl9jbqq//BSA+Osj/wGkOKGdl0KnBwpSaFu6fVP1zUVa+GuN7q4e0/Eb0U0yYiDjd2lFjLKbhZPBlVi8Qif3XPRDWyqGE+5dTfQQK4Wbqhcudoc57xGzp0od4BOBEParDj4BemuBZ5y4kRp0vJiD8NyE6kh3VSoKfwhX0hVr5K/F4az9xhbqs+L+2GdHbfizHhARn9/s4FfbyvjtqEM5ly9VWMFS25Ieq9YW1lynFYoXax0RTtk+BrZIxZwxJ82wNYUIeH76fF6AMfsoO2A+QpeMrcyC9s8WX8j+qIi3yRPMO720UoEAcszq/nFFoRRqX2ceEQMl4lmvDrdrzaDkfwTVQMQkwAu9mBONcpnmEssHHVOPR53t8Jw9pVEoPuZFtm/NrfKcXpxF1sJQ2H89d+6Isks8PcFc9ZuXg2leYJwN1XdjmrZsEXRUp8I4Wqb2szghK8/oIolz81fXvRqBLh6+5S3YPP8Ms1jQbWJaJmPHZcXUaaE7vI6vfxcGEUxpO0A4g4qdBCfDsQIC+rNy7/2JwZYhX56CyDJlE7ruhd3z61IMIKNZ/LyVWGtEWK8Q22j5XVm+Bc5npQ9o2WdyCtirXAV1WLLpzbm93/OZIOXkdWzqYkQYDGAWYwqX7y6LhivOe1m3kVZ8Nl56Dk0s6DXUxr+VKhiLkd7kqYK2GakujrORFkDKH8QZLBQ4nzHEnaK2eEYHmI6GEl8hUUABXWjhh7lPqW2CS0Yc/u7a27YDsj/6V++plxh3oN1QClts0Z4vGfhpLQZMVx72ZJKm0XDZyh8/MbOYXWPt2HAncisuceUq9YCZu6aOqjQjnVw/1/TEvLX80Fxua2fxFqDAlfMgkuMdHAAtHEbehO0m7v0o4Ulv8SdhhyrxyRRA5GgWZdZZZG8U17MpQYBUEn/W3H3hb0iwudvTRZY6Yy5IUzhxP0y95QkqXlGcoOHPfQ7pewQzCS/lximJXfPntZfBDyGctHUiu2jRPh10uAk5mIR+mJTDxTb/1ylic4OLFBt6VyhIZiFV69Zr6tQCRNvpyo25MVnnUNBNOeofFAbuykkTqKBse3KU5Ti8A/tzwg7dK4P4yzv4JlSAYXhcfqWW+p+E8bm9e1+hYkNz+6NF0Sz5GKQMkLA8pKeZ2PMdQFWqllOXdD9JFwiXdjPy048x5InPuTdKk6V5iQ6xU/o8RyHQGsiuzkn0mz8ItdXN4l5WMHrL4AgIBd3fOru4Ngj5rAnCPe2B4EiHtGBX3VtTuCFVqkdUVRf9t4CjxctdM9zfhsM9evfXJNOMX6ASGt+dMq0x9v9igNjyunmaAp3F3zdQ6wIT1Dv+b3nU3PwHTey0EHDZFBrXhQ6cip6gIKWnci/GseujxZvCpseveywRHR65YFp9b0gaVJHcLkQeX5/KGldMohy4aRE0QliWcSkJxeO08jOtTFi5kyk1pQqB1WEpN7kMpToJ5djgv1GaP7WoKxPJttOwPjNjXkNTV6VjC7+/tcE4+gQaSh2kAhVCc1HYtJoxn9LYx1epyfCimEfcoEviwGSEHHyWim4dhaEyQCGhGBaSqrsJgBb1SleTMsCsQ5y2pLU075F/NKLyfP5olkDz+F75rCv+2wsQRteFPMQXi4/pFiuqVNO2ry87Q+/r+LfleJvfAy73Hmwe0W9v2Q23tyfutSl9rSXLa857PaK1fwLrGbgpsFwbuq5gPV56G29pjAY/NSrlqyhcIkZ8ACaT1H1HsVUGfKzSUeg/sKQa5vL3EaeBOcTO0ovHLYSqktB+9dUUnALSx45/nQ4ll/j1y8aVyboIihnYJew7uhjVeN7261wQjLGAQ6LD1Bz6lNF5njcCsuie0+htam9V/Uho5nm/+Jsw6Ii0kqs7IMpqc1n5uMHKNo97aLsvT3gtxXiVduqotecyT+ll7E/k6rea/+7uQfCad3hPEKJUy1bmz3upKNtRWt3SjepUdytkd2HcA+yN9z6bqL1bunsBgj6ehO2CnU1YYDjdzMr6/4zh/6urbhH3sMK3ZgSmW6f9R2g2lSxXIzjPVuCe2IIjPZcI7zvIjVb7dekUgaiWytprKLb7/nWJgKC6YQ5h+m+D5GNZFr/BxoH+qt0LF2kK9BPoFJKG3h+qQJarhlUReVPygtuSHKrd4IAmkGuY5Vpqep6N0J1abLOBFB8Zwpeyyk36ir5K8htW879Hzz2bSylqLKI3donYtVYxWTwTvlGtSZqUd2N6FF53MhNqbPl6k6VYNpYo4D88XiVpKjf9NG6+oa8ZrJPmS3UPfDJfb2090OM+5gUCjzxALoxCi02jDvg0pn1zM4v/+nzBx4iG+ivqlwz1SVfIkGxTdDPitn3/pVAYkr1slotPF80EAmNAD8ezNgBolubDY12Dt7XOUrrfRRIAjQ4U0Pgcos0U85tgiyTxvI2g7762fmm+Gv/z0VR449LgkooBpiYOoo0yhbFPNWNn1HBfIGw3gBcn1KX3PUU/zmgR/1U8za62XKgBvRwBkIXO+6DDBTpxGHsJK/jS4AuJuOVLJwPjQsFrrS7L/s6uAhyQ7+k1pZ7Y9LQpMRbAKIJ6tEfI7BcjO7cBJ/J/cKVQAQWJAaWXT7nROgZmfQnrME2HGzBrk4TZd+ISBJOtiF6U3dl9bJd8RJYPhVQc5z8JQtRGdvwJ5nozGAFeH6jJ7tICzUY0S7J947J1AnpvFjpqDGPtf5CfML6zN155omUMQdcsWpE1c9ZNudWy0DsyBZXVBuK7u9UeNbsAoEfbu3Gn/InnizVOyZj6Fj7c/N5a9u28I20Iu7ZS/ZUJUVj9jECzC4PUgX4+lJPHExfufgRkPlljyOUV6piLDXXyqshcaBfXUdwlRKJP+jUUqqx67vnLcxOf5xtnc5b+rMic/8nMdw8DWaTxoef5bog44ZtsPrhFz65dtsUdFSTih2feQ/FwarZvAxUbzvyUXCSj6y7/ssVIBKACPyhSrtUeb5e516sQe6sHZyLVHcxmKFKev1w5WA+ymuaOvgLKWlM/tnp8z6flKJEFSunoL/pPwShVxboC0AY2y4kLRRWOx4h8QovQFqTB7W3KDLtBD/1VqPq47gg8kZSZMghlY1Bpb1TkW0q0U2uKq9Y2GGNI/ewAxgW028r5aOQ5FaCnQ7d8KYlsUoC7Mi3HRcoI9b8HBbdwGGz80nTLQcYa1gp9X1sbsJ+gsvZYywewChiowlUWZKhZmsl+cD/2TUqez9rPcVRftM+lLDcJixJIXF6sPmjITukR2d/ZZajYeoCLhwubgeNwD+V0MaK0o3pPtuAy05E260CuEPZ86/bPQPMbzdDYC9iU7nWaq9/R/wd/rBm/18kLdi2Csy+3vxByYSbibkAHZ8giTSfkACjFBI9z5CgQZcnLZOr6wStAKC6fvMfsmzBeJFjnF/8165Q/bc1nI9fXtjLxPcGwgexKehfCChzy6ch+inonELV0z69LLReIi2zVceJE6H1hSeeFA0Gn4oMqqjoRx6buoSsdKTSOUG4ziYrYALBPTu85M1LwBYeyRErPvTlFsVqm26SS4vhijfc9sLw1JetQZjFcLVkPWK+RaBrP4YOF0tHvknM5CRhy8gpxRwfCPRCtYr3/numeBtuV4+NzX/lcSBqwDFVPzC0Z6ibgXzfwibZcwAIyYQBtATmUxig+QByWIkXygPa129Jc4hAT/Y7otSRl8CWTxKU5w5WuPFjeP9igqmvIcRgTWYsB0/VxG+STc+gZBlIZVxXZUvDPvdvMr+1bUM8AeDdAHLoVy28clGXeGtxOGL638j+uOs+VBbIBX0agMvQ2kaU5VW+G1zdu97RN3odGfhMHWmKkavat0i82jfPEW7ilTOsubwJeRRH5HPxpxY4v74FZrEhd9EWe590iyxftZgr++oqBtfvPW3fcQXz4qI08NRyCzVnYArGYU/UqFnO91M4OQOjgNnStCZD3nmyZO3lhBgfOZ9Zd03tDWwaLJuHzKiY3iw/RYhsA2SeEic3ba16xq1/ZDmalxVTpMzvFjZO6PAyiff4eaiLbtvvCAmG+6Wcnr5hkJdO3fsC7QMFH3RzTUjYLTcfT38HTkXupyxgnkwLHhaX232i+6ZxlrKFTep3Nmgfp3WXNuUk26YYnExo8tiWbMaqTNqEMItvQAzyFuTCgSkvtj5dicqupuKoZPde8daCJDFEjvgbee/tfm+izl6F4XetQw+1/MwFRbN+oC4jTGETHC+jBNCimx08L+MhtvDovT6RwdOYx1vu4aGTX+ANtRkSX7P6FweBLxqUID1KAqmV/vzt5jUkoIjR+oFB3O9ZI8Q/o9fvRFo+xDp+17ULwihtFJ0j2Ehq3D2mjuXUr03m1NlXfulX4jmGY6hW0+dC13vVdZ8QGQApUa9TRk0wNC0/a/26omSqorgj3bfvAIOccE5rnKJpcxKMs8nPJzVK3h3tEbW0RdJGf5M9vI8W+NEx0MVWZapr6DWVP8K7+70QTBGrZAHihJ5NlBI2/V13DILq/og+a1ZHJpkgby0h8j6bKIXOeYGsn0Yy4akIhyMI3uDx1PJJMy6c3VeY/mKdPfknUorab51V/B+zANPww8ti8I2nrJu1xxIYG9zjqD78E0X2AR1chxhU/Up27t2RTuGL22gXg6n28SaEsZpioDFbOePA+gZ2DK42RJAOH/JLGhL/HeWKUsExs+4hScdwjpdOCxXEPpyKYyUQPYq/4cQ/zuj3p4m0JfD9hrimPUrjB/zPxqhzj4aYOoqmn+dtFJKd1CBrwRyY+1CEgIO7Ooi/M9ti4+GMlphkRaXIArj+am4DOIc44+3sUCRjncp+dSVlm0KcWJH/y3d2hFnFvPw3ue2rpJKy2NNh0okylGRE2xJ8vBbxWOmX+cQ63XZiLzmYSWVjpyTmfdr9+v7mqOzpIOTERypCKuXXjYbATiSob4dF7eTfvd/RsOa9jj3tlu3bM59r0hO/5wEGbaU1GPCrKePafcb9o9iKDSJpoKDWc+kn23tRik36On8JHSAxv6gGvKbKlxmIpXwR84b57maNIHammEebeP6HWRM0E3lpVrGXZNX3fTv8sswivIQDEtHsHZTaA2j3VQwbuMtj6Q0v6GLEC2WN1yC4yoyTTr6rwQ76h8mM9PBiYtDmOX3pKzN/wpEJdDlL1Q7eTZUUPNTqQfpOwutZLBqMwU9WoxnT/LPk4MlBV5WM7qKDcShAr+fx2TuEnq7NPtqO4isJiXodRHDFxtwZjGScryB9/T6coWQksHbzCNPSEqh/Wgwl1g3CICNj6vzsXypD2hYYIHIq28qYflvVAwKkinvx3YWq6ONTnIjl3ZUNbStJZxCuc/8LBCt0YcOQDPE4kNvkzU1MWvu1p4D5BDvJP1xC/a3enCnznLjF5I5ufF4Oqm6FvPQm1NMHQG6RZL6CCEVFpCqxusPMx/KCfAsr+xg7yuEXBspRjJFqV/iqdC0cBehUWLMPuCgcm4qGQVVddiqdbyKr7Ox5ANMXfOwrjUHsgExk+JSDC9p7zNb1FDA0Ld2ybEENtHlEUAfg2hqARjRC0U4XnapOx8hkqpUgOFe/KaSeBIWzkgrQorxQixjaAMwjT/LpjrrpJtr24AOXo5QQJ+AYGYqriW1Eo2KNjeZ0Vq645XIL991u47GK6GOey3A1U3oQnfHRcRJ74307xt1+xeNlV0yGk0EAiNyAGvlzOQ+BBrChZq4M1jN42q+jCyPbaz+X8h19hBQKfUINQPr+Mqx0DyFNSGTWuOyrfAdhBZH6w0pyzuiUrJ3EOITN9tPS8QtP5YfWcTZYVWwbxH5GeQvyTcN7D/miYA2s0ZBqYv1CwVCpARiQDKN/WG96dZ0KVyY++qcHPrXx3vzwgMiCk6cqM+XMajgFbd4s7EYjjLy9DDQh4X46T5drgJwQaQnt6b6cxg3HOY/vSVzG1rrZnY9M3O4qLMa39+xgp5kqEvEX+uWPRs+7dotGzoOkyZ6owkQeI9C1XInupy6BmTvecig4thwEn7Ydzq80LHTl6FabQ6VxmyZzPrQulXDybn2WAfz81qIkeURouEEKRnagKBwj0IttQmSJ/tZQXgAM5pqww5G8UbvFmD3XH7DJN5XjwrEiaeWEHzi5j3y0K0jMJlWUkuWzIa8LIkcT25Otc5IH8lsqrw+rhh7RPQbDJ5tN0KSijfXzIFht1C++gBSE4f74fXVB+u3icZbkDPoWA+1qnl+fTX+Zv3K0ArgVlOT9pkGy1KcD+Z66gBBEK6o/iovS9+fbTP6Vuk7EkGambMp0mI1UNgH3PkrNnw2pen8OdooYBsYiGAP4ewcygKaBsqDUUYvJ/zXWBHRaPRezQzk+8+caMhYtPMbtm22uWLPXMa+zWaUbLTBRAw9kVQljRZSgBWUfcAxd6LvUUTDORkZEhRJ1PkRfA7xdq0DJEUxzZiuAcjpydYIzhIBOgzKYMTY1I6yywxhAyesuWfrycAtErc5Q3qMq6bJOVmOuxAgznJdV0nQJdpPrCPQduQbQ2k2u27+lqI6aVp8spY5QBtUN+uRsaUyh0FFSf5+Xj9tHvGWINkAXk2qujZYU02hqrWHpteXqGKDGSpmY9YgiL6U9HRzHQZv8knQTv2G1x03VsbT2oyn3cshQIuKgXDnX+ABzUMSzLiZoRV9O2lIbR3fnDPVjAfBlxpkoIFERPS7RQwddh5vMnb5e3NCGvD3NlUWk2lIvEiVlravOXN5/W3rzciipd4PI0MgSCboJIWHWAnKZMBULFiZpGaIjzL251Cx6To9Ws3bkjdmWC2xD+C+Ps0SZTARY/cVhdbLDCgRtPWrFxVQwE4wZu+JNeSwrgNdDg3Osw/0kDdMw0S6whLs9NjcqnMFHho0QDJYqBp4DYSOshMvZhApaHh4e7Uu1WjI8GIMATj+JY2M2U4q9gpqVYf2eSuRfThy4cSsYOhMNVQap0RiilQPThS4zZQFF+I/sWK1Xk7sRqp1v7GhoH6C8kaGStqvz85wpP/x1eNu8KHiBt/lN7RPYYpzaazCcBrvekM3MSETb1xSn9dKaNFt3UQtXfmJ375hLorXobvKCIFjZ4nLCHAycG8qlLg7qniC4tjlznSjYPpi7gpDzNvhtDInpxS784YIMMihz+MZri2xRgmpb0ttzgsN5zgSwtdl8XWqPtkIWnOBxsljieUuANUCK46r8wkbih0NbR52dqS5xCVdEgkXg5h4+ILzxQaV7HMBftoQ06R8lHQsiKzsylHYVpvCtbBA/b8pDh8WHGBJumS6Z+K0sal9QsN7ST3u7u+6rHyvdtlASNhFh2FQUC2/mqK9X2tWQElx1x1UKzEK8Ttot4OyUp23250U02W/DQMwbHivLu5h9dZXgAweMq9FW855ofhoojIQ75r+kKt6ayZaGCFvBzRh/RlNOx357AbfEwnPqdeaJ49HKb+ST/xxxrmOlde4CvWs7cCl1VCio9I4Y/Xg1GBQE+o/+gfzPI54CTSHGrtx7Ewo+HDI79MPKsyL+J/4Uu8JsiBbVb5cwk+Tr80s/ab2z5/Epb0pYkMFXOMNhFHJTbi9oqH89vOEd0RL8RYP5ydJ7pvAqgwjRQhr/hCVwWfFh8jEdhV7TKg8SkD8OTXRK2U+R03sseMmMYeE4W036lixOiWDv6MulI3OwzWfM+i+7To3jXl0NZ96/3+RbehH3AnRUOEMXaiSO3Lga78YIpiMDeyfPznQHTQ+GG6fXCIHAjZtahu/Y0ZGnfXVe2Ymb9lcNi94Ao5zg7HMQcTlet6O8nKRdD1o2q1t18VaEUa41kDu4yLLfU7bJAtSvisWYThFOr7O0CE9hIjM6Gz5Pb53ejChzRdHinI6oHyTFh1qhj01z/mKGejG1WSQhXaHh+JaPjp6sGtQtFfcyi3xjGmQhwfwPb4p81hNEpI93yrjwp1YnLDxXk5QsHonau27dZi3vI6V4GCSmoPP0P4M9MPfeQOWMqT/rKKlPAjlkrSUyO8Gh24LC7LV9IAWjSd5/Js6nsTRi6AkdqaRVroINgg7uSvroi8tQjdRDsNo3KoH7v8rSKVeJuUH/K/4lSxGOgjpM4/pETkL/etvfxIRqqTIfTa6cc+xezFDMMwgmKoMoXXbUqN9EnYqsTx4ekHQQvhzkdSPksTN6azwGsiav/Dn8xo/Jb5dOz1ko/ECRYDaw9Is7xA6g2xXXIbFt4dD0fxCCNxZE8bixPJlu1tLNnc6wxZY6Lb5EcMLhLwpL2aeyJYitpy4CZ/HHtPFLROOlX8y69fmujqcGcJ8j1oeEC3fyO0KHHpVx7k6dsF5BqYEgpNbfMksa+5XtXhh+KcnujG4ekhhRZEfTK7JSRdt+4b5HF6o3H4TjsFkpUD7rAySSjrQLpsDEr6ljzYIcVNkcizhnErvg4/L17gABmChK1C4EV8I6nMXCQiaAv8at5VM+VjguY3xJMzYxK3bOcAX2rQK1dnnORALJWdnJPogbej0SCoE2sE8S906n8k7reOfXBr6MFrZTrWAN1CncqrugGkiUVL9vsQX4s1+7jS+FRwwB0yP0X1KTmp9SfzOu5D7JLTalOlTC0dvkWpshBo5uvKP3+geWH7yrtR5dGLqGkXgTdINWPmWm1jJ27qwaSjLRmhtxLwlRNgVlpI9FNfIPpneuOpbVm1oKzi84KaCKMHjnfM/4odpkljxvXDjXAvROw3p7s/Wzt9f5GGBfmTnORArninTa9x25EDPdXRtkrDMT61GZf+lcWOOXb3mvu4kINqBLnBI/6aCaxBY3FJUlFQYGyqNz1P5c2xVELsCky1tf8xQCjCZ9Qv2Lm0EVTUKVlSZ/idR2k3yGHwRKSTXqk0GKaNj5QBMpBl9xNnt5XskN4OpUejQzPrKDiXE0nV2oy6ZJw6cquiqWjRToMm9fFprIf7oHYHpkyjI4FxHT9hX3FmoWwCAB2K+eedt4nkSQeYJe4nIelPtyZynEPJTTBLLcIwpYOgbLbnT3g+N6gTy2FGNeAr2GXRSoIkQ0Or/f9dLO61t44i4c2sHFcO2IGeq1DB1dPifQM5TXf60TCbzO4uSkAaf0nHI9OmKKYavxVhfsKwqaz3rZCFJ8hEYcXHHQ4c5mk3PkYOf4Lxm6M2ZISjkMs2fhsgQCxNRTgYCRKnGsSlZ71fRS6NgN8/+7cjNx8VPzOOTE8xiV/Agq8FRiB80OVVQDbMBHEKwzKZbC48E6iLDmGhXjKWxosLLQjuMCT2l0iFDqJ52sKSr9eTj9G96XjocOOd6sOFK0CYWdYIiIOC8Xo2rZ4mjeagLzXJJyE20CG1OED5zQy9wyt1ZfN2ooNDliWQyfVhq+4KxhxmhIF6uELhHN7QB7Rbj2YwSLAt4ey/ZWMsg/yya8RsE9Si2YUfjQKQrWQ6G+mKOc5tKWrn8CWrB+uSLhXMFWLmv6cBcLn4vIhTgZnGXeQao32xWlnSeJCKrWyz/ZYper5SHAajCgrLGYgpemWkbGNssD4KWI6kvGzBjMAQ/BQFpcBoHbakCs9T8CvFhAlB+9ITc1wgMI9vyoyWRrlEF6mv+CfKyuSLo6CvN7exc1Agz1fXcSiAFYHwe93oPt0uu8/iaIFyZxdVXVOhMOz7ApSvT/KRS/yzi6Is6gaf8I76Rcha3bY0W7Atvv+P3HCiyvGvFrXkSjxZ+k5Psb+FFi+QKALsyDpl81Bt9push368OfEywHE1acIDcc4TKMWloehc8EdBLM+EGlETARo3ItWi5afUSmEFnwcAfLUor0yGEbFZ5OEweegbrMBloDSI50CgWADjhMQUnvZnuQ+h2v/lvStaKxfzrWjP+msZao4FlIcu08iunK3oFPFB1GXZfbnuRfKUXBHQpFHLfKbD8gtTTKzKv+zh+xZy3hyfhtb6kkVh6CusXmpW1O1Kjz+fudbouST+qjgqzex5C3blqNmwPEOXKZLyly0nCZBbi2SJmPI59WaWHuJU/2urUXpLA/DbkCF6iwgrKaErOgw5GEy/LbcMqptzu/xmaDuLftQ6AtLe7puMNlvtyVX4DIjtKniTHJgRNLAk5q0H5xPdcG3r5r9Db6ZkGwhJ5hJJFcMuIAGAblQLYqsRrNB4AzPDJd0ZH0EuLAc/2wQsGUxsp2z/Djmgd5NZ4Oai62id2PgFO5MEEmZThI1OJmUwwtx4HdZ5+rNK8GCR1vZ9sdGfcts0LqAScVSFobcAPGEBzU8eXSEcEdbZnNpAcrymbHAXblRvMJoLfbqmQB1+wQeb1ofDuenhCe9iHUh4b9JzOMSop8tfINq4WYKnSB0GUChDOWMuhicR/RGRLawsVBNuoKO/MbgucCpoXtOmXER+arKdfmGEo/lPjpfNdhfODzcnBgt5txiz8xhVJDJhgtaqvZAnUIs7zb61kAFuS/ez/hKYJkEkitjRZXRX+QJUV82pqFimNXIKjbOr67U0QQ+T1PrXcIbThB+u7tpTPfZShP7DYeETHp1Bgnix/BDsfLCziJfvSokJ1DA74uaYesszbyo5bGrdYSzacIYZ+U3hNMwN8s99ULjSGkInGTXy2xy23/W3X1OE4U+NZajJ37LuOL9C7FBx+ys5pgyoA0fRykzf4M8mxwOOg18syDFnrxZKatyEEon95XNZjUVYhX/BMsDlmdD1uExVn/WSFnkojnrbshUttoBQX+TI3sQo1xIRLIFTrlpjwyp46xLDClhdXkdehNIA7FJv54IlXScXFFw4o6uAEQA7oE50Kl6qKK9G3GZKsyuGOY2MHiXIJWJSoQUXhx4JvHkaXn8MVC0MHzT2I2UR1PTLV2rFy94RKQGL5KuiOQSvkPGsdJZU9bdLten5+BULMe9d1MOpGrTA7qsMe8alWA1sjlf3rchjxoTCnLacikXnvnftOzR7JRir9TmenmaMpPuvHDYrsDMzbTCFZx4hQRB5N1TUe9QDZlMPk3Xggo8ye3vH2U6/L91N+QNVa41IQvsVBNy8uSUU6YxN99ePbrpXXxpzNn/4RUj9+Gj7LQF0ObV8pWoN1meutUCd4KkYc3FJZcG6YXF9AOaaN+45pQ4peml4sQqi0F59MmZOaNAux7RPGU+Nd0Shh5xriWgB7FisOtspFs1uD7IPujtE+tigNwqgIzg8coxSh+ATTb1yAw2vRJH7V/75B+TKmcbSxVa3vkKzXFgtRtaxS2Rz8194bBQNNZt8pNwCEA76ELp06GmYFXvDXl6msumBv9hYJbQQY+K0IuZvAy1PmGZ4tLaolEKsoDQZBH9eehuyKEBiTaHqKYDBK6rVV3E0gSHuVw1FFXbZIA9q6D53QaFJwaMaVopc1FDRTUs5OOmuMphlkZg9HUAkQZmtPHA6Q6gBYHrRXEwTPXVkalqCFmyOEFpyrAW3vARj6ZdB79zYnqbYucL+jo9sT6PEF+XP8u5RZyYSErkniUJ7KnGaFQrd5xTi2DcBflTmHJ8EVfiIiM+vTw0XejZ3pSOMyo+XZHyQb9eEmB3Ka+3hWkrXpVmwABgObu7V2JdKXovPsHZDv/iBbaBtJ1SuOV1PvXSoWT6UzNLWtiBth27PD/3UM7qt7faIn4F00Y5CASRgKioulX4qaWLXBIKYGYvVJ5fXyHTH9sTA76yNgdAG3lQMhCqcV43TA8pd4nHmYZ6AY3twLbN6CfejnRXi6oPiUnZA+48CdNQw2fDOeiUp/z5AIdIK/vQeEaD72hLHaxnLRP2Iwv1Mf5wWDdX3HX8ZrgCetJLqBm/8Nxmv77w+ORUL4WPrZ60A6L6xFkEmKuAURFnTqSedPSc7gGbMtyUmNvf6pE7qMssQAEOFN3NJCvAXqKiKOTeCsz9PnpYktiDaNVK4y1tOCzoOfIvP6J2K39h6cLIJ2N8nGB6EPg93VlTVJAcPy8fYOSUcpI0cl/+Pf6gDLacgQv4S/8tk7mQff4lJk1LoeCRj8DZFNC2qkpZ/HJh8KN1e21WYVedyulT8aWxhnIeo8Kh9bZslVBE8I8UmXRq3Ylfq2CSAxufe5MEFhbs/qrkA00MscJ4mpFwqbWziK2/qdwgUjv8PM8hEciio1x09/HYcYvGK9igdcXt9L45pwKjIkOCP9i2IlB8tVClYD2rQxPymJy+nsYGrd69YYpOQc/rhMTJydAe1d+ZBLrPV1uC5QiFyqZmUnY0Sp1YR33Iy1S7na6WiacR2HUa2wZGjhGkLZS3C3fxl257YgMJF6jo9lpeOFFDQbF0rwKzUqDuFr4pweBuD9gVBhv1SplkGQZqyxZOXkXPz+UwRcAAAAKalbZdQBlv++bXGX+SnlnrVcudx4USoOQ0CMeStmrjmp2WbtZz9thlDAlzCU1Qn66X51rIUTKvFiOoX9wEF8ITVMNrljlMtcDHINGhKT54gA6bYrua/hYLo9MvVdNU6Ba/Bt6bY0ajzva06PZ7RoM8NRzDzINCNpoasT/HZ3VBLkyB4LhTrohO1Oyh9E6MjLj+7+wFTjErDSLS68d6GUmZ9DpuNXcMG0p5TBZsMCmmA6T8eZFKrrVEyWKQGng1wSS9DTTmL7dd5lsuVg9CDwbbt0ZI0I2/geR48CbXySVziElzT42PE60njviQ8+3c2GnrAll40D2mBSuatJItVxtuwAAACKZ1nN0/TmDMYVFi+bIPp0k22nOmx+oSMRuANEJul2NckxHM1Mx++Enc3lzEdoHXYXMFnWFtocwLGlle46mn3vKo84+plN80q+PwUiv/aEJCUq1LlrltXrQ60+pYjvK8csjKH1suSCNasg3JTfSc/fHe2VRGWCDak+F7tbZffDeZORLf9KZ/erEXE/LMllzWhf3m2szERgWKocXLwsAtu99nBQAhVdpOOKAaAo6xdm5ewkWaPNgJXUbvsV3SRrHOGzTGelp/nIWifuL0bT5diwD2wZDurQLKG71QwHSIU7bTjUHBGhH9VFOLQI5izSPnoXcQuVSBDKowKA6/C5pExb5jVUx3olz715FzJjZtwlSHlR0DyRWVBquVPBoBgDK/VUA5x1ajfAAWeZtplAmQddegRtugci1ekyjX9RuxI06tfJfdQsiOUJkfUNyhlWSuvatubPTpodGHDGr/wnFU3lFmLm23dAFc57KevSS1B2+pd6SGcyA+JQ1r6PLQ1A8kgVAyzNgqn7dXRAWyaGtvL4eyW2UCQb6iobv90TPvEfTBVSbUBsAC/HMhtrT3x+FWtmFL0uq7tavKoLTQmg/BdBHX45fAhjPthfsO9L24DONy4NWrzSmPPtLI0A37jwBY5MvpOU90RCwU6Wni7/ZKT7eUdtAqby6dY8T/y4fK2NHh/mZVDQ69ajMy0z+KFye0K0d/CNW0vmvyf8oMXrINEcXZ1IEHy2AEX7da9feQ8b3wRGxg+tsB8p2kMcx8Fo6eZ4ousFkXnSdPWm1ClPyI7Yh4WZ+7nZMI7WrABHW2t++/kRfankMrKRbKlOxsf41mCqXChq7UXwhPU3kvJXEtdW+GGuJjwsvEIR1wAaif0V5ynTsJ7qaN0OUHfEra0GspVWu8n4RN7SGWVB6XdmJrCISVEwuJXNbVTY/S7lTVHwlHb48onE/53XhKjD795HEJFM6V03NjT1tGDu+Pn4gdvcnIzsKQ8k6ovmntR1uNHeCL9TNEAJc99oF1xz1UA4Xcuy9eG+7sImExIYr4GF3ETS63ZKV210nn2mxY9AZgiTtTfD8yGN7CI0f0EsPlgjR+W387kckFUfSI7aDaagCW2QR9I47kIh537e1iqr0vpY3wR3Kzzv91sh30kt+IqB6I/vUP0vmAVxfYMiBhsUHh8pKBEmMZhvtrul94Pv2CI/K7F1CemkPLjgZNl7YqmZrT/bA4vI5PNyU2ut2y+bC+vXx3VYUA7nrM0wpumlYhvc8Zz8pxSegxMICqzPqeN/eWHXRXCRqA7rUZmLLiUZPO9lGFHjyiB3IJfNd/VPjNvC7GmyvLpEoEHzg73YYsnzXgHDetPCNGXLzUB17Ao5NoLRWebiUcVNtjLyvfJ1kKO6BU5v9AJwhzAARC1o+QgMQz9MFzjIYy9eH27cv74/EWMHscqCMyr3yy6JfLUCAnWNbuMP2UrN7acEoG5Uf5uA+jDUOxiD9/iw+P4uduXE959WMAsavTyd2qf4b8FnyqnR9TBj4/PJXBUq+C7n5/6topdfMB1gdQX6Ab2rcEb3LuBq8rFqO2UQNvVFv41dY7EiJ1HHNd1CEVdxS+jwUMbPyAjeNQOHnXvg/Z1xOhD8vEvl4TqcIBV4VaSabvZ0ByopKtwG9zsXoC3QF5xXcc6KiPf1I5MF6cmcOW1Ne/lpINXp65SRDg+9WO0CydA6axm8+4FN+7Jh5p7y7BrPYcHrr+Gb8kH7K1FJ4piocBqncOLLJWf/ynCfMuAHIQDO8Wy+SSaP/t/PjbS2iGvDIkyTtg6x+BKUcnIir7pyzUri9ghAryjo/WRvmHbvL4qYQZSr2tca4HRSUpNVrkEMquELGCo8UEy2Cg0/4X+lGphjdFt0RhHs3d6oBuI9iL5es25K4zTSKG9So5y4Pn+S1hxA/+k59p449YcqyK0Kw4Cd/JWB0HJvOOOjo779uUOj/ESXcvC2EBCKtrB5Fmap6+3Yfy19hIT/t4uaTADbi3RMU/CUPjCpFfkYa+ZD1blV0ZgtLkz7Fka3BQJ6o+v87Cxbmc+z6xcDH6DV99G8aY7v83Gd7doU5eg/xWk/DIIeHpm4PKez+d6VWPzjMy0Xf6jwWAJisFAoHnjn1eUnSbrCor8cxvHCa/7luxfMdZ2sBlHoBDQO2mqRUz9IY7LaCC4tmeJQyx+8UmjyS3tgZhtlMd93YJGG+NrdrKGKU1U9qRo+Gong1Qo9/c2efEoDUIDMkZLpn5EoYyrA9eyKR6LCXgRNubLxsP8G2kz609m8xzQZWr5Gs3l1h4VVM561JAP3YYZvPuIGkuD7qvjqHVPs6nEkCwNLWGBo4NiRjQpIVtc87R2HYRGmdHLCVvT3AUi0JVbHO2tXiufvz3+by93sTIOKQASltt6++RdDK3J9BGOTW+ru2KTlqheOHPohZtBwS26ojSUvRrV6OF0LodelKBqx8neVzeWHz12Abu0cJ8wf0bA2zAYpdRYwRl9Qx88B5wM8HdGXxz4ZRn3Wgn5NRnLJhQvKIOMxZOKj1+FBZ7FmqF+3yn6FIn7RhbhpZAlQdCwyys3mlsd6DoRouGn31Vl6cle8fpNDEdU5DiipRvGTFwcvErigqsI/jKid94BApoz32FXX8BpnHx7fp4+JrWGVdB4YOfvZ6Az70QqQlX38ZNmosdf0qePZKInoXDgyfR+nYcUm8XATb4mQGHBoWIE5Nt02exTcAzOJszefOQjh83ySpZwEynq6FCPtnIAn2yjFT8uHGUuahU4d7iJ0wMnIAK0QPIJeimIwEJWcnawBmWK2/KxINmIFu6EbRh+WS9JDCjNtMVyU97bIeYFCa0OXBkMfnYhlfxEFzjjP40CGF/5YLy1H5hK7vGsGpxpa0dY8TOZfCppM224oj0hmfSrq6g7t/sTZJUYi5VFEwUBQWGHlhKDhcqMMGo9d0+DTXC6ZjRUJVjT0EG0DfPkMAOuLBVGMMkMTNA+MyHT4d6cACVGspMSSqJxXmYVEYnPr7Ye0FyV/kWmtbE9QsW7G+LwP5HBR1PLs0k0MRyUj3R2RiCgTT/JDa7GH3aC1U1PdFO6V0hXYgwKdbpQY3ttsrj8gUz/sPqEsoLeavrlznmWCQkkPzqedRAnlje+dCTIWPKgz9sq4YEfyOhxuUYiME1LAzzeC+abodU3UE1Z5mkxlkF4/xNHdDDYo2QUDo355SiOPfEUSAz8DZPhFolbNNcjNK8MU7TgCYmTQCa7/9QzO+S1GLI60y+EOCacfxqJyNdnusUicm24bjgoWjonQKKWXMUQsnqGj28NePAsileM+vc57iyTIvyFchuAuUfAgMWroaRCEPMrQ1YbWsO5M/QrEIYmKYVxSYfbWVhp+0OfcKM8YVreDU62CPVW52El2Xf01PrJQai9MYWOdWKQVMZaqMa2A7z5upkx3TyO684sbRUEQcJml82UsMY+v62REBAnIS1q3NTswEite2sgmKJhTW4sgLAovrSTgyiK+wU0GGnKbIOEgy5Nq8sREtbemfysf1Win/87GEU2VRfG6Wy+JoN/iaEZLh30iZuxO3BvKSP/LvpX96ysHG/h40C09cLFAslGBApG8uaA/E7or12FwU9NyaI9/jsr2/FH5jjfOGm7QghomzDuBqEaTxybsRUsLFp9zLMm9G8KVsHGO00wSYv8A1UhQ45isRF9SyjQoC+IyhzrHXe+1qxIQWrreOtPuYspknfXFlXV1vc2hS1oJUALezAL1ZXTewKJCsnb4i0WIFA3FOLPuqf3ikvo/o0+gign/xgpDUz1cHwPE+SQ4RHxAPwaqyvjcfAa82bvbpCXCMo4KVNkY8W0M3ePUSuKExDumMGZrCM6R0H6JBL2AhqOSQ6S2lNdYcYrdrEThwqp5KbjwDgOAvoyyNHdy3VOcWkDQ4p/mte3A9BPI2o2mfNfn0naQxcsh2ztFZHUjfZPDOXhPAMFIKZ8mjAAduSe1HzJOq8flln3ksgx665DXjxgwiCMqCaxiIa+MbHuqoyrxFWDDFutbHAUxzP0OuZPWLlYGfnH084TXDbkKXqdNcnauA5SAhRekhQt5stOmIgBE2AJIpAqweBQxoSYYkW1Y8waFahJPIRKXGrWlHpRzLZduNCfg4pI+5hqM0QScIbdl/ABeCGwFjIhLfOWz/VF5OoAV7jufQaoeEz9wmIa4i2b0pYZKl/b9sRb/RFH8tL0zdSa+xqKcOpDph+uZPJM2kFXdjwZtdMk7w7dBFGU7AjTh2A+UZKNC6U9DGtfBGiwsVmYYICMvWoiyt/YqpCCThRjhbAU51zQzTEbYJ4gLk22873wtr841bbQIUov7Ibk/o5v4J2gtJmcoS75o0t0++2eFlo7/c0f9FDNFm582ucuDfu01Kt/WN039ufdzWQfZ3fJMQUmwZFOctKr+Jo+7HIdlKxxOq6h58VfA0Ltr+sAlXCFlouM/WQiRtI1NFi0l3SwS0WaRJJYjGJJT27Ln7kXWIrdWm7MKIBmLyLN67g2NsPFcZQ0v9SrqyliIVw5ie97Pwtrcw9N4Cg94ienc8wO6LRcc2WvV1aLuXWletRhz1GOLiWOfv7EqUG0QabfhCF1V2KNVr1kep54r46pEzOzQynQKn2lpy4IDOhGNNEOKNZnvEz3mg+7vRQfnPWs5uw8WqfDB/jb2T3Cy2vHO2DtdibFc7omqF8hy/92txUa4Dxr+Drap01TNRHumavXxVCPjXHHuG9dxkQ3ioPBN8pbYtzCAM0oVoJfrBN6+fvE7mFXm0jFOpQGtsC0HBreGiJkRrQyeybDNUiKoCiLamhEKhv5TeqCqXvS3qp1CgUWBLSRkyecdWPW3km4VsNrO5W5Waf4usUT92c/WgCY1u7xiDBWFwkU0e5AU0uRUhwqXoBRLOS78OIff8DdTIC1//RZdKf+3uj6eTpKBbcMbJ8ign0smmyPRHAcz7lrbWg/ik7v3DbGH4GIKtC0mRyoa6ZWBY/FB8J7TcvihcPgjuAAAAIlR24AB6J+1y5Vv/ENoU7xu7HwEKhO78w3jY8Godr/CBDUVBz9kUse1Olr5Le55LBaeiqlLAC7pzIHoFurA/0QNieAYS0xdQRupvVSTLhchYYSXk/fiGj5cESzeCv20ti1+GRYA+iEvRKwp7Fiirwu0H/nmOSu9yrPhsZbFwdH+2qvlSoYaoubj9ECqFSVbmRpKjdJ2BQTObtOsa/iFLB8tXIxwXubr5TbM5KC8w8y1FPTG6ONZC3XtrsZXB5XNq/dtPSbBzew+ykmP74kUcdFFeAOQpQRhdphKArJuYr4u4fSNYbSBeRBfEyqpVg3OldynGDbF/Lgt6jNqGj0RmPl0cYFgK1vQZqBR3S+wxhrkN0My52Fi4pTc30W6w+5ul6hEJKD4J8T15BcYyqPxAdZ+D5Sc7Vf5KE7CbwuxsK0WGtd9auuFCV07eQWYsingD32Qtvw9di9uAP70AN4PC/Ru9CP+jopGfwNyzwAOvN3AXEdIpI4BLncTY645/TL0T1AwE6u5+iquSsb9WSpKc/LtK5o7gbJXgYZRSzg0dGAeCMuWaSRLC3CeI86peE2Z/YTheQW3UZrvpOHKGAoTZ04S6/JcymIL5/6jQleAN3oJ1A+AP/MuqPzqKkrCv2vKwHXMZf4o6ss8XxABxt1rJj5+53S2/PqBovVcV6J8Yn20Gu+K5xl2mYPTzc/t8ylP/I2HahlGe68najyeQKnO0r1///3USjV7Vkg165vnp2188UVGxENtMKRSfNKKN1Iqts/yexpRDtGxeGuUyohMApfrVNSgI73b7uQy5Tp/La/WK/qcSofL4eBBVWVZ81/GPf0jN/3tJnesBdFOATEmKFpMe+F9j2OkrcbqMhR4NU4EzDcsQgCUaQF6Wc/DMkU8DwrO/zB1SvsoKr3OEve8gcsZ7UjnjSE2Ripfbce04W6JuKC4ZahbStdG5oEbEVC6RFUqkaTGVD0km9AfZmpE0cealaBrsdGMBxj8xYbPn/dpNKnf44tQRZxoJi5CJ4BGikyI3fp1/iTF6BtUKuzyuE4W5cQ88DF2V0U6LDsmeOXL5/p23gMrnlF7Ldr4NmCBGh+0ucSBDOQ/3AgSxLPfYvHsIlzhRGX50AcangFhmvbxsKrZi06EpRa2WoZSyo1xgMFs4LGv+RHd2jqXRvXpQWO8Xu1/WnGngtUWLRa6MFj8Af45AJF4n2hZhnsS0kL0ZDuUEBS0eUjbTSG2V2ML9TIsZt5PgqZwH6I3UrAkNxAeXh9T2O+G+hmHZ2uxEH8hXVdE8iADRyBdVGW/P0boJ+Z4oOOhy4yGydoys9ErMLTf8JMOGgR+/YBfHwdmceXOLx9LBzrIc3R2sPwA/cp2udEDew43t385zzj95kFpGSqDfdqKTpMwHhOTcqb39WHUChkUQbh6WXX0TSqOCpOaYYlx92wKPN9BlKYjNL+sSe5LP2/ZxUNQIkrWS1C51o0rqKyWLNeQqR1s/JIb/BfZVye2IYoqO7E4k9yQ+TGBT5da/Lk5Hqb++TIgI85ptVRM8fJ1rd9euC4Y25eCLTlfoLS1mrja8GZ8SfJVqPwzOYl//pUabLLfcX6VR3QzKPSFJkZBaXHZf2xoagnwHR4ptPamjxaoehl835tJAuRRWvDWHZ1DkNL/ERnpjLOymXJQjNGGDKwUN8GhxaabKkclXHRStpOpXeCZpHIhWULJDFHDOiA66Tx0uC0MS0YqYJR7TbwrCNNl0TwHPk0uvP/p64/e4EPJKvjSOUOWmwjg0FxmSis8JJjg69fVRmoa72GH/WX7aZy+t783P/GI2My21EzcAwY7Gat+oUhUN1Esfa4j+OToroQTJ7ZqmxLXCoDF/IpSF3l+3lFfD7f3RqawPskBOV7G/hp+Olx6mmkhpNSz4Du66dCw0Y6v6JjPTcHY98/Xcsbmfdv2pdmpprgp39gCis027HDcOH9/tj7SbkzQPAIDz4M7GAkZElJ7wWTsus1sdpKYXhRD7b9WrDvxnZgXEsImIdateteukJuQyRUJ6yBtfR0wlqfaarkiTXH745YVfeWcoMu/IUfGhRMF+Ozvjmg1kvPn/cSdrjZFWonAhqPO1Ru9tpcBP1B1J97I4qhxnlh7kUlil8/9CHwxJg46G/p9ZxLDoNBCNqLUenT4IUPvavcX+ihHeMxlJk55/BZB9G8ebw5mlZuw9dPqmK8TaZFPWsB95zrScFH5OLYJcZrZdv3dxLBcPWtxpaVozpzeP7sBEzlLWads+PG++bU4U5jrsDuokSzEHsVyCoiOyEj1dAv2vPSIsGv0V1CurFYgQVr0seYr0DEo+ayUDlEMXU8l6ucrd/ZxaJKGBe1sNggWUF/alTEZLWiwSiFW0tolD3HHH3TylFOwo/mYoPQeON2Y7RQ7/3SgMMA5z9Tpj+ZcZe/afBILRMWSRK5CZiOHkw0VOhab0NRoPlpwoHbWiNEVVA+vhmav3bHBkWen3+TJagiJjIuPy7RZAqoeoNsDj47xAudA+S2MbG1b/G9HIKcLivtCL3ErX+QCiylSVo3k1k7jHODUKHNjnukIBbDDi9TV3zfWgczH+6gMP1EZ3Li2zLvk+E1lHm50emXxsWcZYpfYVF3GlzxBRhxpQxuLGDabRmlm99cYqS5sFrQ+Y24VVwp+ilzdzqXD2wf6rJPiEe+T2/DovQ59S6zsVTNWQnZg6vUCfyfcU2o2aB5eix83+/QetEKbS3dweTIBmTNGljR95i2150t7cyvQ+/pdrCzwRknrDsZwWiw5g0SPt9Stdpje2L7SB8n2piVaXKuR0IxNECch6Iv1B7RHZK/FMW1MewnOGXNCf5YS7yYFoRJrTqaUhSUWhl5TA/Gg7H4QcnhZ4SJD3ij9EFCDwFJfQsFx7YM9AeLaJov+7S/TZ9KmyEJaHXVJveqomNlBlPzQmbsceWJlbq3qLlQu8unwb4oGesJYcJCr+coOuHfs8+69rUDzt9uM50igfSELL4BgXYO0JcaB/VPUfGYPze5H+pdBxO/UbA+IzqHMVk90wCiCdyIwWEfSg5B/l4+rrP6nlRCA1wxh2aCXW+WdIPQou86uq7TE5OwG2/xihVin70xT9GP4wBsMP9pxMyU6I5cFq/1AI8OUFS+3/plrhJKR3Xdg5uVcBzn6n8kuoy4f7wm4abboNXg7DkEkeNd3vaJScxkE4YshbfbVCk3F9bLA6/Yruu12bn8+jbnfG7uzrC4E3n8WVVk0DVRmH37M9RwHkoe/tCyxRgbLIlBHIQh7zz5Q/FaaqNGETH4XV6769QUVmAAAxUhxx+V5lTrtPdSpBB3Wub3LuU1oBJlLCSx5r5DfpiPs1NlMn9VeAbnZpYu0snr+9itA6UckE3s4PIubef+AJuu+WI5dcUFA8YSS4WEgoPkL0kFCFDz3hdaopaaqQ09yGznz6m3/9uy12CG1xjYOCvhd3dNZlKGSfe3lr8ANksevoT/3VqoFow7/bx1vlyHiRArfqeeFOseuobPDGrQU7jUk6KcxZomNd1SowRAP6ugrjC4m8cPBAbLR813shjbZljHm7K4liP1zgnHqruFBjmfWjg40LuQIR5h/EIx/0u78mg/1Ekg+7lTgRTSG38131HkFwIpobs+lSlgTKcSA04I2Btle9sVn3jmwbU7rb1393ywHUwEwfVsQ0i089zaaf8AYRwT485aSsklIZ3BpR2wv1aajLW/XUcHsKc7uzNhebInroFTObJnp5eolnHQPxHIdBhkZUvu4xXWO4UuIRTMKjb3TN7C9tMq9qL/t6xqEDk7gsT4InvcBuWe5nJdCrZpCUIsnskyYmIaU5o6BnltdUVG8DftkyjM1vgCi9LbSPgedTBKwvKIBaAc+Y3PxcmxD3EOiaEsSY1ACZzucHFCuQ2SBQpBGHGRSsQPwTutbGpWQ1G18ahjap2+eQT/tToo9/lolZmHVM96NBFH0y8MWhp0Qq7mm+a6ujWDPZMRx6WrY8pg8BIEACqTZPz90OaxjhngCgtATUCk719yhfRr9O2PnDea7tsCStUO64Veha/0/5DDrdLv/Eyf3cobsUIL2yvxiQr7gBwC4sVFE1akyprZScmUEsEzp6mTLtq7NsAtxaxTuVTx5fYVzvcPZFODc9yYT7DAieWJKLq6+jfeoPTe7Gqgy1N2+gW2uD3T6n1RcHDjSurD2nrKIXA7ds7X5+FnTW97doy4vee9oMDPqpHzh4ySXvVvWWCA1cXXuBW5CoZXk1DtQegNM+W8FDZMk9H8S9VkIur3axU9gqUo02Mrv3WE1vu925rhPq7mxP91Inbo8LF57SPa2fW9iKgpEYv4/BSg2ZuuyP76jsi1BEVIWZ0q/p8LpPIOEz4eAogq0EERs8aOzre1QBiBsbQAEZQ2vev13ouGC/CcXvxYl9xWe6J/cLeYrvgCPpIWwlPuF7qCwL2/GOKv2VkpEEBr0moI0sWZ4+7JFv9jI8QPDfQnsqE6OMlmuTMsX/Nv9nlS66pwVK90LaU0JZKlPm8salyADK65qNXLtsgF8ffiaRw7pXsF7uhak/h+77tTz8/KOKtg7ICCELLk24SuJFYpQNwB8kWOoayzQ2O7dy32lkj7ODWNIPxielfafc3lsxXcgAvqz56b26brP9RNXqwjnsSvE0FCaHAqfBvZcjUIqP9GEugZAcluacZvlXusXlW1c+sNVEXK3uu8cUkPN+YeFKa/vDvfIMkgBgoBkf+A1HqAvAgip6g7IiS7GzDrMD0nY7zNw2JVkdmplYdu4b2MB+xhVy/iRbdNljwylArfNl532IX8VZLnx7gFMvB6+CRhuAXpqKkIF5xaziuKTdA306/q441+rszv0LcL/2TuVDaESOsKJqKy2rTIww+J22KIGwXbP71GWBQe7fHJjaw6tL7/eEzFG9VzqAMPWkOkjFMtTmg+Heu6J42Y7u7KH7LqlhHRDBAnSoWjZpdm9HLnktgfHJ9em4tzK0kzi5Odnwbed3oadJdhlAwxbbX3efecdZ0X1EAQN32uPBCLhiJv3BxRwp4+3ForyG2p54lOzii70v2mqB0Yii/Xj3tEgAPsDX7Iorc+RGpvD1nXXa6GpIgtZF33swtoQA4hWKP4IaOv5YBIBeZEYuuyuw5ydXzRJ3rcJjrdxUlKWh33wDG3VVCnq/A3kw2V4jmKur/c/vFyL+ElYmNRMSPAqzFSmthR5rF/CGHzDVxbJSnDcr2J1mfkwcKySO+SbA80S4xHigXWYOtkCxJ79s63pTXuZUNQhUD+w0El5qrkhZtkhtluXaGS2KbJy2vcnQ7xPjV+YEuBhtYlMCDKR08/Y+62tM4O+rl6Uh2m7yAGhVM43Rk4Q6ypOYtYTGJiFdNO4GpPjMPlzfpf2QM8yVlbe9y1W9W3RyIw48wp2ubIuS/mgXJU9bVU86rtz6qoAxsD576unDMClcAb6nPbKLJqfXPR8FN8IWSV09y8ERUJhgi/Upa5HvOTuCWNjmDmuZeIpY8HafjeravC5iQKIwrFZpYJ7JiqnqUsQ+mfi+WNDV4ML9W9eSrHqXAHywlBaVEz85AkEGWmy8u9aY/+36xWbxgYvbqdbA7cS7hw5QeHVIfiDnnY3rvINdKyrGc5O3IvQX2WZZn31t6MF1gaIrW9dpxuE4mmVcPsq0ZNTHgnxDR7UG2sHJi1MQecJL7wcCxcuscGQF82DZ02vMkXtaAv03kQuRrq4yE5kKyUiUVXmU4BDE9Fp+GMGTB/ADTMDxb+X1Tv104HkK6hDtoOuASthjossgVLfL0i0EauOUcT3XKOU88VKSzB2QgGceA9XUn7CN1I/+TKz7+wO/pK09/9hubrEXcS70cm16Q9WxcbDRPdZ6+bscgwfCTnDcOLW6f5M2glh+/t/S3eMjBefhDbL9APpHmgx1jn/QyDE+cxK2aEfLuQHN1eDA9X4wPWAJXijFSmscjC1Z2I8a/QXltA+ksKCQqo644IvJO0F1ME3G7jruJqi0smoa4tGyFyD+RvfkaWvX6MbPku7keU446R1cKOoKP/bg+x26pIcZ5RUfmrZlEoQmYVfgUJ3vK1DsfdMhkLcwq8fSWXlQG6drJiDPE9b6yiwjaB2bNt4sfiyKbx9aR4pwB28XX9+s0lnlunjrQx96uph43CxOTOl6yXU3c9GmXkkXJIpGNxT+K2lu0KwmaK0O2s+rJ2eeogI2j3glxc8tRnJ6niSRUp2VPPyFvvFUBR+oOZ7KfhOpdyoz8zT/Hl1l7TrFDENt+0QJI/VagUI6SLpzDtDhgF0P4fyN2gOQEdvejewezSCS0ygPCT4CHyfsFsdmxY/JLWVaQiKtYcwU6zZcjD87c2j2qhJQ0G52rH7cmwilJNNgwxvLMou98f2RR6n0NpDIIfMlD5Th8wdLPkj1lg+eDAXclrAFiK/Z8GIVq8tiyRO/NP2d081oIlKg+r2RPTj6EBMLq2fRSAssgy3nAy5eCDGp346GQ1V1E+jPL7r3/Q6X63ZhgZYH7feYkeYlMv6Vf4NKQXXE262ni6FVpmsxdaCIPC6QDyiCznCkBMMAqj+6QQAAAACqAa54DJSmh+kAUZUTQeGfj4X8TB+raswdr/r++ShXLmSfiBRcfSJ8G83rI7en5/qfWvnhJbc8vALTGDBzZiyDRsIGSqINRt8hS2ULtu5mHTbay62m+yrtfHZLMOpwzLqeetqPlxvYzx5HUwP2OfsNL07Y2V3+3EiMJiU8UNceHNovs6vrjXHlIHrvK5W4a4L2EtkSAcrJ8JSGviAcsazNGSpJR4rLIQDPfVNlMG7yNZq4CQOiHcFysNiCXSazebT3UuQ67p8zFEgFDs7kkCt3XYKvNEaH52xWO69c3wG+pJBi7MrdBT19bW5GHC3067O7g3ptAPNB5/O2MyZ0SKYBdvVDrqIDZVifW0bkszt8FcqSWDsYvPEu6iAZGMhvaZwyIR+WEF2Bi6XV+P3gMib3+ZG/IAtm6s3XCjFRLUxCmYWd8XFnKdR756gzMw1PYuTXMkwGIn4JyjYV8ASBzVOk669O6FKjPFdryqHfHP3molVSc+5j4Y5u/TLWDCGZwZDA3rJcdpNoYRv6XH26ht6u6sy+FqarT/M4PlMDvrBjSSRZ9jDhy2+R1fBVTFO/qAsHKqhGpZJGG4Z+zdSHoMcir52aaaBY50d3GmKUMKd1wz0elEhr0Q+x/tZNoGy9aAhVGPrf29fH54Ltdb6BgXYfCJUjUXKpBrQXe3TJhkxn7L1Fyf+V5j9vYjJ8AWN/KCtZgZNxwFzQyJewZLzKHjqCHSlt6FzzhGkRmnseLtY0QCygAQzRjLXhB+682jjrzxP4aGvfFdr6BIAnnomvT71lqoCwJYflsgkMwnV1jb44OgpURd9fdxm350US81smms4Mr2fMrPIQ+r1aUczNnpxeYoXvTnY7bZ+2w6XyTxZKw5u+gqCwHtv2Y+lPPPbQKnGgoDpkqjTICUjC/bv9PmqdT++fu3A4yqJqjLbLbw+DWlwSAdk+TR1wH4Nbd+xN39l3y4Q49qqGEUhKERO8ytOY84BhTHNELsMQ4/opLNK7lWNlISSRY44TubuY/P56WZUTDFATNoQDN27EKmxvddro5PQvIanp1HEZpQdoyv64eVlZM5sEVRJ1iSSPDh+X8VTaaGM6+k6CuqnhOxjQwGBOKuc8RYfX70wDgrB3hCEtTpqk9hmZoizLV6lxk3EN5KHwxim5UMjAgn/5aWkAFhr0yyHPigi21zm4MCYfANs7IBoDtviTtBjF04gX+d8YxOEmf/UCU/lk1cnsHurQBPL273h7Xs78org79AeZuvVilohzmGVCQiZEE+q8eDs6istHKnwuhKFXGZzuk57tK4Ov+rQIGgtVwYSMkK0L2b60Ez4qIo9hINZRGymJDRokccFXqE+oXy+j03c/XLfbJ8UqhU8uCh0HhDeBBDcpzTW8II060vsWOjwtAQXMZAjumM3yMm5F60g+mReixZFTkNbxX6QRebINhzgLyNi0zRDSAAfVOlMrGmprquLQiNr3Ss4a2YUocmDS23pckWxl6eFCbpZjn5S4bEZGsgz2ByytQ7PSV2R0mIShYU69Wc0SQ1D+Wd9bmf9WS02oq8qtlExWyYsmRkqG/VrUSYbumEu38BLVhE9fL0UZwoZjQc6d8w+pvgz97/hNxElijnw9NHocFZn2pzmUgGb2hdKUtfwj7bicO0ggahKGEKoSQ7WMH6bLFFTpOMwdSWxnzGRRxZfDAgwjGHjQ+9pk1cha7QakKPxp0VypMwxEMWd9Q2QjEAQAA68gYFIMVzWA/lvXL5fNNy0eQT4hLnhkUQHAdVEatUHYetV2E8z1Lv/yIQtWAAAAAAlWZgj2WMwSaiTjTrTirlKWob1ypQ/lBB5XFHKvWPGhlPI2ZXAF4RmN4QxGz+a/HzkpVRCLdC69TahfeTYnS8Zyxre5bMtNr1MwmlWmDJfQrdaarTP7I3v1A1iIPkC2rQr6f8egXisiTGinWklYg2RkxGlrvJTgHy19fY4Eql27EByk7CNQluKB2VMm/XD5YZ+DIW2yo1t/GZxmbLbAAASzn+7FPVMd+0zlnEQ03awM3q43jvLEkb519Q/XeLjKSKDgzHLzZZFcHcF92PtAN7v7CZinggDUZDxL3S/7PJ3Wtn+lXHM4YswBxd7OHpA3dsAh0SHr5GZZCKKN1pLAlihbCNTNhBMVmSAcJirjYt4MTC/KOy9g5cNZn5oCpbiM+x3aRzxYhEuuQrczh/WMldw0qk/Yb1Wqds/X29lUkcIZcABeivKXY8K6icNIFOxz7d0zfjm5VUFF0SVjPR1VKFwodblUHuvLS8QdbwanW4Z0q8FY14OCHWfRQBUlWOw1LYgwTn90/PLh4atJDIQ1hIzyL9sMoO0yiKSdWJvSXM5FN1EUx3m9EDVj5Pmf0ID38gQYCq8D20EQVA0NH2Vnt39q2oinOcKG/pi/BhvKJt7xrz80ABChUUi1e0hh0Tr+i49Snp0ha10bH2St4uqopBMjG9k5XZxWLRYkDw4qBeimoO4EdhaDfskvrw1qJhKPO4pxmhVuO8E2t0ganlXcAh1GtA0uGbRh64WReQvUuL/QWaQKtbeRfvvLG8H/jwxlzsE7T6uK8Z3zCCC9OUWZzJIpBRGYCvGf8320vDwb4Y/PqVL57Pm4kjl0fAeQxynRQQdLUGxSiW3mOrfIxXcgVxBN3e+iwvsZZgOsa8cvrkV4ltAlCjpVW4PnC5KVR+SfEMQczr+Vui1FSunaN/25qfYWoWUybOuyc079Lh457jTt5TmTTwEzB5Uda7hwdp18vlRu0O2dLfesljQE+l02P371gojhXmfOi2VSAti5tt6gZxXgbaHMADohdk12A2/mxEzW1E9f8AQIvwsQFd8LbCfpyO/CKbV+H5S5zgTcsqqMbby6Igw3rWl6cq11W1QFamwyYbWCFpCGJ/Bv49WUgb/CdB35kvwN5BjszfByQYG+6eAOGhM3VfO9Uc+gAMRmSPVNB2UQUKVNG4pfuBtdZ8en1Z5fdUF5wrI8nzYStxqojW+nuVSMELdouPTuQUwo2QSeU670muhe3HSuXL+PrJ8zI7G8pvZ+wnEWIoJTav280PuAiBsbJAGY9zyW8VvTwYl2wOoU+9FL/Ru0B0+QHLwWgoLFgHrFdC8W3UbwmQOeL9ulyR8xED+0M+aR3ZBT5r6uzgpv37KusCweurH/Jp2TuL5cpnNvLloH+Qm5oYkXaf/2WfI7eBcgumV6vEOAe9F0y30rVFSVMSPcGh3lIQoqsMzkcINbp063aOGxoVI6iPuKGwACTpXiRJWSSwWsXMs4tAI6AR0pvWBTbbIKe/JWJDRJeU2WMsq71eyBKEXZt1sIK640qbGoaRLlcqhi0UGkvSv6UPr5SAEjTYPmr4i6xVwWrav46Q8MdXmK+rXDaYr8HjdKne75/5b0xotSMaPFy7fLrrxReLZuJ5WKcP+/P+/RQQEFRPIXd0kPP/WKZ0Vfr0gXaI/LFQZCOENJeikUTNYyKm/7Kmbs66DbrEH/TsvqZ++7jvsKaH5JULpIrwE0t/jRKF5/bDX/KqhUYKa23LJyqdmM6UapR3dPFdkeLIGJT8jCUfUpHZKMqyTquJD9hzIExG7nA1J+88OeD+eguPMBHDYlGY/XWnMkPexxgSl6tBLYQ1ifoMqZoujLgFO5iih/Yt2nbjxWnaajBJ49q0HV1JjSfsbQlNIL3ZEXqFD0Oehln1z7FhHFxc8tfj9O63JdoB7Jy3lw9myeLlNd4niSj7gu0Z/dmPmCF6mvVGXdti/ByPI8+hQ8iHmQzlsLv2cNBmK8m9zWR2XS9eF04qSftX8Ook2NvmvrH00XeDbAO0kcy99RWpVsXdnSKLyaA9IkLkP9j68gs3Zk0GRWQt7UVs2hQlvs6FhsNA0RnurwIHc2/2y6priDskfsLf3HkQemJfIu8M7wwAmuYxfGOkxLYOdloHga1GIe9nXGtVwxKE2HgJ/zL+Wl3sZz7GLrxFVqszJZXiuDiHkscyR84P/wyUX8KxU9OMvMSIjHMPsP/SGZRsS84yOVdQ5q6sA5dWSm6qlxNGa918q5De5M53vjP2gGNN+pHCX7HZl8uia0nQ6/7CDKT8qrcHsmf27HvtzM3HuOJmaHZVhS8iZv/mF+UUDVvonEBzZHMJrPIEOjVw0ZJfo7KtWGwaaOESKq/4BSXHMAAAAmm3OCg3KgUW+DxoKDb2JajSC2LJJgIKWhTuVLUVDp+GdKGbbV5/g4vnkzVJpQMBY2V2aZ7mArhRl4aX1mEfrZ7dGV3vq3fz5BEc4t6qwJ2ti4ZO9vvdurKoUO+JY9Qi48RnU1tr3R+TuFULvrXBOvllmlQ3z83lNkVZPvEetw5ddHaCQTzzA8qFj58ct3NJ9NSILFOICYI4RiKaVleJQtGpGpSF9GcC2HHwqpK/+A5HkdPRBXrm4wK6mtKSwe03RIEU0nPyi/YY9a48Q7fYN4GUgZjkxpNqdHADGJyZ29BfNlMmi5dytbf0LLo1d/t63OAoSIu5Bwrd++EJdjmAH/tMHOx/W/DSMIdN+rFOny9qls1ralpGpQHxvV+r27tc7bf6qeKmmlBjBpdeKuuQmZcNfUyBTZUiPVlCcXwL9vbkGhon7fKQJq+C4gWS3hrYRVtIzVIjnyV/xMXTNqehzXORSeZU1UaQhU5An2Fb5UepxYQrHNJK509+rztC3ShYBv1E8XDqn+n3b4t0u7wLDlQXeDrOTKxDBTruX3Y2oLqXsd0EwOBB2RIIqjbjoDpCEG7U4TyEqvgpiK3HwhNOAhFl8zwywH9/bM83d272pFK1pKx22Jxt7O1tQWrUMNUF938T6p87x/dih62BnfStdN/rmk9Rgbl27fnY2tnFTk4w8ARj11gnALeaUuvF/VfRBfSpMeTdrnS5KNhRaVtZ4OzcwrO8tOfPkc6IyLCWqH0WPl4QN9F+y7XTYWwOCukJ/EOzcHR6wEcWjUaPyg6CdjfxOuXlXubQoRhJ2KPVo2u4uuocAikiF0N+KZscxj8lvjDcSJ7WYpF8NysDsFkD0TrppqO74eygR0wGNjICahsQgxbUvtxRiifnZpTcIq4yRtro0Qk52jdzRsB9kHasJ+qS05/35fDe9XGgx4GF5Nkk2HyOblT8/8/5/NmoAPUZSra1GljADbRwqrphI++KGGR+fScwRDcPKdA3+c9ti4lN6MeJWBuc+bGO2fvHWBnLAluPiAQ7DvSqhRAoMhIwPxCDkypCQeoO08Qe5B6XEkTqYfLnddZHugCWbISzIMCk1NywbladBq8jXBefmCsEkVwlASiBWeDBnMf7rgD1lWY8HaGYWb6VAqV67z14nicJ3d2x5TN7541DM74FARA+K8b4Cbo+8Xgc9KLpNyrHxm01KQjDUZf6YUhBZ+CJJiGWyZBh+FzI8A7uz0XSGf5lEZ3LtzXhogCY/tceNHrlL2sRMV05TcRjWnaHu60Rdn5R8Jh9kUJX/FfKBTVhm5Y70giD/rD2yiKl9n3ri0cHBXneGUU5ciYfGhsVQtNkOqdgmEB+FxngqZ9qL70KD4Cdak+mWlP1aLtKYSsIPsDACqtJSeHf3I6BxMNKssyZ6/SSQgWuhLcK1FMxxkKkxQpuWva8Mulx0oAaFYf3nyHwd5C6znZZRZQpdKMNxKRZxu3szSxg9gh3/f+6MzxkxvaEvwhjAFrPUU9CeWqcRnLR/4I9Ss6JAbebT217itC9DAKOzDkoKDNfECsIi7f8Ua0GHfCj7rY5h0mDDNtGs2fTlvVVVwM/M6SHbb2h24WuPuZgtNKg1Jri6FJJ2ILAmZBPAMjyvn249ykBCX9EbSed9YO9RdVsPbwq73YbDlxezz3uYmie+ap78HX6PenEnG14R746j0APjbSLUJzQjQ89S1XI16dQ7vNDO7KBaTFhZkZb9gtjgle9PeGz0kzzmMoE87SmJX2d7qzbOI37mas4FbROXyBrIo4/NIDbMgyk8xAoBxUeJqrJnetkoad3LOEG6PD6+PyRKTtwuYt/cYbCbGEQjl6h5qfOGmfA62AvCWtg0E8qxy301dDYSAFQ/hNG3z3SFC+4XccGp0QcL8npgx4aKJ2rX8Z9wMwsmXaM81rnh7v6hN12O3f9ZSdcJ7ydKCNPE85VjO2U7Bo5K/MdWWu66OMmCae+rUek7QuP1MBN31oY/3NMgyMMcpIgjcLAa4zHWsRSnojZ+Qy6m0bmBCecnX7s3hdhDlPrWftvZpQzmu0XJ9iLXU1a2rQQP6QFdJuykmt+S1So4O1nRJpoLzf6a8nPbNJWQeD1YjX2YTnDGxfLQACfetU2NNEdyNQAWaGvejG001APMPZ0jY4kGXtgSDufA5O5++7fUxOBcDqXF45x6ZZyS5A1NNdjYOObf9OA6WL8Fue3lEXOP0FMMcyU52cSIB5TfmYlY15hd/rtv09z7lqACH12xmq1N2P0WrmzE7nTKlVt9R0DEaBqFQ5Ou1d/bT4bRVH7iaqj8+v8m7Pi4Md3MFoJ3OoJl7spHgPCTQfBV5sS2oQNceQ4NpOzn/wwXpMSDl+kytqS5SG7phME3fkD37N6UNMAIXurDjXr3vDYRcrRuApQR8PWcgXZbu5/u5t0uxzPLM9FnzL/EVntHTPLF1oP1OSdxN+P2q4tKVIevOqS93Vg5EA6Vet0+o8BfYfMxUqfyr5TX5t+KgxvPhgs60POpY6xbUnGQ+WoCQb52WBIyIohrURgwFHxYvXzABsrcpT7DxquvPL48jA2o0JOKVPTQLbTW/BEFZHu2ni93vBoauv0ZfVMgdTXULpPKtRS6uB/PZLKeRcQEe4sEVnd4O2vDGvmN8pl6rKy7CGVfsu+lKyOY3yi/7X8U343VBsRzF8COoPzrsTU60DbmHvYFfabjr7uTETQ64DUgu890HyebAZvRM/EwNikwSesV3IkqW6QVWcaO0b4RmtVi0h+WhQaDddYCK/EwS0cIewxiSaO4Banz0pO6aapWSh+V8rGRDDdy0rsaunL55988Pq1tPiVKy+B1ogPp9z5U5qFyv7o2FSDaMbvQT9GC6cMlSNCTUqQhJCHckuvQWo2rMImZYNRq7qKV5D18t4MCL9baHejtIri3Kpa3jT1wH/vGv0395wo4yQD4BBjwnBX9rBT3reGaChP+6uo77E2oOStQxWkIJpqkLJzsn2AeyUWDQqHJkJbgzD1xSUj900ekh0qSxul1A7KrzjG9tM9lG0P2iUzymVMVu+L2Dya2L7jpXwO7H/jrsx+e930LWvS6nKeV+RAHkwFFnrd8VMbh1QlGEz8Lygekyh2dg2VLVlPOFQwQxa/Si9+BkSmGuUrzeruyegfnloqcrmDjW8pCi4WR+huH0uG+0L3QKivNrIKDA8WD5XKvgbuNz5arIf1x0/r5+zYpl0tIY3Y8U31fwce0hqQrswXdqISmPAJEaUh6h5E1t3vreUUWzZ1e4usqWW5q1ujmiuQNA8cn2/y26+SnwpK/GreA23vS9AmQKPWu407KENT6Lh6kV8I7T8CxOlc3AdZsroY92PWE+dM6ulc8Ot3DTc0FsMytAdQhy9IP31FdaG/+qt6+7eGYWwhRM1O5m8pckrB8ZAPKDjkE4uwMpcXVINcbhLkasVs7JQ1ZVlXmWlBNhkjxFGQ0+PiitVGoCKZxywUg4c88Vj3lBiHzbZEczfWuEyG6+rq48iNH8SbxWIOzSz+lmP8loSFqKCaQqDHYyfVkBeUI4pOPA6PHlx343ULMxwVqqYCCWBNB++xsEmIpOU1tllbMar6ILmBd2Lw9QjDmQRZHbLWPnb3dgsSE/AcB+OfMkbH8pQmf7Xbopq54RoOgH23S9UATaHJZXsvXq+osyKsu2TQlcw1/If1npqpUp8vFX9YIuO9IrUrQGR4aqfSW0Wknc9FN1edve4YlPPyy+XrR/C6YzwkDiPRT9sdD01zYOwIZRrVykVriz15gbL/GxbCVrHPAm1VyJ6VV0EcY4IWYBaxMajlWi2fk3ZIvBqBA2jjosu3h6cYs4R0eHCBXBbTE9oB4qriw3H98Ec3ayvmd5zuG+gGeRvgqs7SewZ+hJoDEs4ngi+e/492zy9eEGzQphPDRNTQ9Nt1FdufJoG5mf14uX22v0BWNnQqOYxROo7RrKbaPhkY9bRac5KsVHQbJ83+N63jZpNyVtUhtay44nQeRQBFrqLemWpzCqJCvUmEoedMnIvRsPm1E+nUQYF9JnOwdl4IyPt0MhTqfOkR+NjJyvJ/fAsN/Q35vZXMbjUfewnSJQ4Y7v9MZ8etJ6S2C4NC3SbA7tHTd+5KB3cVG6SVNXXAkmRTwpR9ZkBnFHN7Vs6bIsqjlmj7ezznLHiQeB2pAV0mnNDB8jq01OKQdgCSSAd0SbzBRl/QdLlK+EP1ROMYUws9kFMWn5Qz1l+K3vkUmRNwId2AmCyIHlgUylIt6+QqfOBGS1K2kSzIWRV6uvsp9f2ucjkbhCgSRcJX9+m1sYfyySOy0s4762RHUKtVWai0YM7k1Gr7tLIgeP3NWB2ci2/4q8FrXCLQvx0iKx1pKXNL5+jYqadjL+vLToVCqFKWXnbdM5MJYtOTC3s2JCAlwhJYxrqMG/svQg+JstaBtyTtRKgxFt/YLZW3F6XhONRUTt6x17eXhnOF49/AvTF5i4CNlq1Lgm4/1RqRv6E2NN755oVSDPNvT69lTL9Tr6px5jSx/uD5mB+NbFJ/Ul2BJT4MW0Dg34t0Cyy102tzveZzf4DQ/0FhSdnBYCSE12s0kJVBGU5uHCwv54W6hpKr6Fc/exkyGKQVPTLKv9l62aCoGfW0Ot2OgqNk6yRQjfZg7dcB03Iq7V7e00s3LAqAtQBmJQ3ZHp+1sqrEzpnZwZZolx6I+oPsPAeD6rRvCKDPDhvjr0kzb0iI025oI/4WlS4VhwaHoBJNgdcx3PM9YnAUJGun1arf9veBbgxgRzf+8u8I962gB95SQWA0spwR0Vipw6wIfDe/oIoN/xFEjosaeNv5l+DFijLDh21QB/BLDBMyXPTsyjRwSAHx4y0uLEa/s+TLGWraZ6P7q8fKi95cY4j3MDOj/Jkbuc/P3rpoMfwGCHge5rYYgH/wKfWphdtxaCZPrLpHqSFT+q2Qlm3pRByFICGn+HK/W/s7Si6/dOZ6y7fEYmHr35jrxEczyrPhhD4vJjlTu+eg6Dadp4VHIEo/lTzu7ylHapKqMCPhPFM4fZ0kKVQYtdQn/gV+zioFgBqTS0i5rR3yLFfuZx/NZXonvNlNg/HDdQaMV02JiuyWuaQg2XDY6fsPAK37LNE7/OSzmykICjxCtCS2L7bFiZiiAWvXRE0/wMVbG3kTsIZ9nadyOTAyUK70A3IocBWbN+wCK7dzh5yckZDnU7o4iSsCGORFznqMezmkznYBMtMKEPoTzPwIXAaW1oM8SYY16+j2zHRfSX6MxINwgnLaNwzb7/zHd4W6isxGw/HWewrG1Od5L/PlURHkvJaBgQyCU75F/vHnuQNQnSnVZjs3fjl9TXKY54IYJom+kgkjZcGUHURoUvmBKa89+yUoWAY+wZICa3trD5Rvn7pTDasUD7xQQ6dxpO+QX0zj8Z5ZgRcnW/alNmVf+xOEGr4tGGIni+dJ8Aqqu1QETWgmP/y+yf4u42ylqBVBigmqzWeOJX5skRBwNM/KQ7pHn17R9X5XxpvssYrALmzDty5iMN31oLLtqEdi5M8+wi1bYqgaMz9fDKTGpqdGsoV/5gyAxHVU8la+5G/864MbvGo2SSN7l7WEJJ1VmsF/UKya6M2eD7iiWwedKvrI211VfuZYMhqV/dZcnlO2Wx+a+dH0huUfIf9xMI6THsiTBn2vM0Xck4WM9NkxxZv0cQ0l6gQCKKtfvzrO2KPCJt0QIhKzK2pvEuz9DsYS9IP28tZb6yVaiCCtnp+xoDbOoyyzO1g7F+juJBXsBG+UxheSswDv888J5UZLNZnBABRt0y7JMI7vxyIRb4rb0iBQMbHDvpzoV7yltPs5CWEhdesvFGq37AS01c9Rc0qOzu7Iey2SHNnAPDObhI7oNZp2sGk5HRvzNsmJqA3Mzie1y4gQUccHUDBv5KrPng99ag2Op+h2d0f4t7RgL6PFeA6z0qQOlaM9jkxfpyH0FjoBcnsGFW4Js+Vn7d1mP+0ei3TNW880mk7PV0LVuH6826hX7IS/aWxwMjDsa6Gzua6vJWpaTf0IZ08hKVP8uTJrOlN34kz7ekjRnLUA1gU9NskpTNpiDa85fsFSxMspoxxA7AUpXRqtCdgjj+DaBR/fctsnlmNknnuIxFOiIQQ7x1TkuJn/tImVdy3sQ8WvVQ9XkpcMV/bjawi+Tob/ZeuC+dzqdYsyD3Oh9NCc2cRUeID/G+DLHu2h17D0eBEKbLu9mCJYd14hXqk1xvAYmvkR/w4CHMix6EmQQhExpxLkN2imlErmMx4eKTrO7KrZcekfoWm3wePSdjZioWdQXWFZzmgPEr3cNTk48v5Lf0Q/q1liM+v5vQBTSUJbqU9/wZMLvgcfJaKcHTdUrem6JSqJ+xpY3O6lEOUROWYaq4n0uoi77NjZ6xx1dBkd5QZ1Acf6tuuUhlNif6mq8iNxDoj/3tqKVbO2w6SyCMVim17RjswB1NXhlVTAyMV/w16AxFqBpL/wJdyEt5yWQ8rqcvOcktEO1HCuNW5v00fUvLZXrvFBJjzQxE5RHS6hWIZjlmlOhSdp3lg4CK3AA+e4mQ/SF2+y4qPxNBrCRQPWGHlxVAiq1tiXMt7y7nQrGFEUfnMr2D8vVAwjd7zBDFQQT/ygBbOG24BbkgOiV+iH3mzU55rxMcV/RzT4EW2SERfh/33p0N+wlVy+MrbTEUexHd/fDeduCWAiFyTuTZiyHknJ1FTmsaCQqLENYgsBVZPBF8W43D96GtT2kgY8dIDW0mHOHPbwODgO5eVVLj1B7M6jn3iKd5t2H/g2EKJQRC1rUXy9nahkzvcRqcGsMraLtypr0Oz5dgt4TSKAPKHLEWvSNgbtSYjXJh9VmH/Ax7gU42hipC5uImlf8I11J/c6JLuFmJInEB9Korr2REkqzsWZZKt6ZCRfu6DIOKVx0js1NTp7FieTPMeY5kql97hAQQblWZbzjHmP9rOTt3MY5Fquaqg1YrAtLg9tU8X3cfjaS4N+N49doUqKx/qsRsXNK5QXnLup9A3XvA7xHotgQDCbNTxE1i1mxWgMpGzHpVfu4ypgYoP6jDV4gawC+uAtRP94eG4MQO2r9leTmx3/0TEeB1S/lEbr2o0TY9/cMdXZGaeFnohX+LI+BPBE+OLCCaKo/y/ddjuHbnk0nn2oympjBzz46e9WgPC1wHHYsxBwP0SIi3xfkRO6d8eHIvfvkr14T3ggAP5meT4Cn3mzqYryNQwa7WO2Rp7XVVNZHlUiZnRQOVR7r8LgJIK5gpNtT1I0l1rGDEenQvuW6dmCijX0JUU1ouRIuUXRu83p4KZHjFuaPemvIvpQRCvBZ3gQVykROHzOeJbDilTi720FBBf0bQPTWjQ9aLPOZTJp0viMrhm6SnnuXSs4laXTWNlVbzFrxPSqvGBitD4v9EmBfFP2M94OzJvxsDcbEz4dID/CLd8QehWqxBajrQjqCy7PmuXKYPrcKpysI9FkKfI7WM/MWYquMnc0++oovN+TPuLq/e2RN8/JJXedR3mpbAZfEDLb/kUL4U3iXr/BTWm8uiWdF94ljNwPldH1kJ5/pAIlT6Nz55iADNIrU5rSPYBCIt7my0h2E0JKiw2ebnp7xYd6JbxqKTSCG7F/016xPniKM0NQr+dyfSoXpEszkFDla6Yx6HKew6T3VIiov4RbO0qfLBxEtvqj5+7xMaSjQatikDJUgfdNzGH1s7VoaqW1n5esIPSOZOKD8LBI2tOzIwQTFSByvYZmBPdjOlw+iXsuQhLEtAhIki0DRH6NXd8ldtETYyJ2D0os4ABKUItN2HvfdFjPazTMeLZBXQ3r8v19taZ/aEIYsvt0WEFMRuyDHS7qPq4F/n9dDKILt9YnNFBXKd1Yt3RlBeAq8vQ9EHFQ1RXwn38zjCHQaYA0IvKhYZtlPTVTAp4RVKJJU/fpqsXjVSvZws8L6p3u+hpIzti1auhZY9Ler/tXJup2BdbQzAixezEJPsYPa4fJ45MMJEsueSia/+Npk1jGm7riymyMCCFXcuTBvBV8r4HA1SNK7/uDzI1dgWvtnPwnraX20oeis6+VgLdg9iINowaz0CblLNrhbPy0E/lrjxYf+I9X9guUymL+2zpoio+BfOiRY1OLBuLE1WFt9K7dkGF1cERQBd3qhutAAC2m0Cqzh2euwpDdYr8MCCJKdCcvXSxvPFPhMA12mWI+/aoggkjTXeVaE3aOQd+3CholrhAOkgLPT3EVtt3z+xC65cJf3APT3f95omLPXkqpnmdZGeUrZBLt4v1axIfLZ1fUipJNUauIYLhk63Z2Cps7o5i9eopHbqNuFnIpdbsZ7khItkzmHnvP2wxQq7veGHwrKoCjKFAph/U57Ebm8n4ql7c4PDL6fS6xQxlXAisWLAm+SPTDElSW4n3otyBq0gV5agEuGbhV9TUtbL7QZV5KEVZDLeXqHKI2QevQJtDM04galYZk0PWsCSzBF2RCbo5U36mdveDOIiMm/1U3VnrQcevtZ1AGxHgqmzNfthD+bAFi7917unqL4E0k8RHuxPbHc/yr8vnHy+RdFwm0UiuDYvM5ThH3gBF8kbwxOH1q1C+J1YqSeBs013ZHRAPk5mnAFzBdxsAPSD+x4FWGPgKyFeAB8TYtHUsoUdQdiNMveNToPCJVyue5nOPsdVqqzQudd4Tg7WdyNFtQ1uOjpBnX5IqQosX34YI65XNw+s6xARyUa2ajjHb/izxRKJf8E0HqIRFyKxHudKsfMqllKxVNPH+/Dze3v/fwDqV60GP7FcV+rpmMK09GmzRThd6o9vy6ExM+gJ51IQkfzZ/iEs9p5MlZbC2UNaaYnukWyhkXIGQ3B4BZmDxHhMkOhx0hyAkXrms82uwv/bjyfzjmhbfng2hKe8om8usaFWQGstxig6j2AvNSSO/fNNkwWW0Olqll/6nINqXgsnnc/PrcpnM0oJWT7j+y9I1dABBQALp5Jf9uJ51p+/xsz+Loub2+4Wajldwn3DUhkK3RmG6af7/JZiQcCSKV6gKOXzBW1RqN9FRJMsqzsnE+swe6LLIKPSHCDLPYgD6J/4JTz6sivKLMQ6ZO1PIqfFGSm8DxPckfEqvTtr/x1qQBoX5Q7Yz9ONTeXt7iRTF8FVfJ3WArnUzsCTHngiOSuowyjVC3hK0srfOV2HUNO0/d6WM1qVviv3ylOO4mtuqkt7knyvBScwgbn5K+4gSiN8P5FeQA0qEt5sV8Gpv1EPqZrkG1zztsDg8Dw300T+WcSgVJlRG/3YNMy2iZJkO34sCG0tCmvX1qqrvejDwJNAwrZWDiYuVdLaMgEumzaVIGlGPLkIuIMdWC4LC6WZlyn+UXl3k8XHwGAqLlf1svvtntxrnallowXNrTUZBznRjQktUB1uneNtmSRfTvEy1m4Edin3HH+or6yONiSLWiorV47h0gvjCvA3/wIS2s23fZWxQb16a6I9R2VZf2wnW6jpEiozdGxK1F/y0DhcljJ5jrOnpr6CNijuKVlk1WNjWHxJ8XXwB7SqiXFZCc+gzR+AUyycGO2nTfYz9gMeNX1DM0ab5eWiEtM1OKTlFnjmEqCtFZgRf4eBPRq2ATX9n7OsLO3aK9Wlac1JtB402H6uC8WbJog4HDwoTD+SwujPBpm21M35gY1ZmzRu3mDRCaUE+rBkUKWOltnXh6qoxErIhV+kmn99IDaf/oYQPL2dsEZR62EfhP8H5fEvyrKe7C9TpYi9gAACaX5PWjb7aeiZXqx1vEayog82Q+zTsEWwEYTNmyWPldblnY3vqT1QMbK6K6DJidPrz3r7A6/6xutRDMCtpWXHMRpUaecrEwyvugAJE/Ugna/zhBNUaGSSN9lrsnqzDH5bMXy90N8/0CiCgdOonfcPJ+sTFK+gI0qqMlSl8PMwVNFdPeu09DixFdRhBIboBQtGQ0DZgJBP06hGOi4Q0hBJf1uA2kZyWSUW4Vm2xi+aV70GsXGcsnjT0Lji8zgRVx4Bg8uShGhA1RjcQORoGOX3W0jztcWK2TKpEcGn51z2lDCb94m/qqRXyCFoHcJMA83yvJKILfvrfWaCoLlJzGC1fftidDe+PemnHPKfUyrwJeoAAAAAAEtjOo6EMidu3Rm4ImWyvfb6chSzF7V2YuxHZT0TYv8lH4oD5+1rgHnXTkWXMUL27XqqICvCpqxVZSY1g+F2LURHKLG6q1WyzfowieRqDdc/ULHsbPiqlc5P/p3UQnrZ+eUQPSznOt81IU5DvrddaPfPuFgx0zICBawAI2c9BBFlz+xPT5WxIUOvOjdjN2L7HEUrXjQ1ATbMaSQDYOT0EvR2dME5lnSqqSWXhfvsu7ISTnswCBUmEoQ4ny0P4JqQSkAyPKk8ED5wk2l2p8flG3dIqT+08YD9qlZqUl5jFH10r1U0socWUL05evBshKz1dXrnYEiFOMeHYsUB0nxlIMJb/i3sTebMPm9O39jl0adU8ZDaLmbw76qYz5a4YHDHmHYOk8GjE3upv2NUP3kuDd5tjfP8MLaGJ0iofEToYPoplRR/anXsg7a6VH3Oe57MyIAF0mMKU49eWdNcF0mDh53ekO8EZo1aFeWXqnW3gBOyEasH2hxeMloyCcqEMjmTeU1KuaIGcWlOHdGb0U9SsCutmyO+rtxFOCeKnTs9M6imaLEpXZ7hslKCOJKOzAstXBuJAGzqaOGxonYBCDXbWdtE0UHnZld8KBm7aZ2E1fuNdAvEgBUxshHVqaqJaWeMvsZLrqPjrLSeQC0k9FN2uOmuPIHgr4FoerTnoNblHBua8lQUC84BP5daH/roWujLQ0i9pj5o6W1dVB/tJv7DWGxxXrXHY63RLkmc1d6rI2pgteLjqmuJX+9HXSqWwMjNkTn8EsTco46U0EcgukRO81AZ5hGVnVxU8m6yh+CqbsOUsrklXkp0HH846LkzRuJsv0lFMChrqk6q4LPTJhDGkmcPH41PHGJqGj2OZ2hHg9q5nxjMHjT/2mvWya48sRFZjRwB6DqbmMivhT79+fKBsSFgiCUeRe9hBwO7HE1gKQDRbNi7i/GnYX/PiirbZLoq6393JZ06qDOvlVsiqYnKgq2EhSFKBXP/LgyfrMhmqYRFeYi7v41ijkysaWqRl7yAxjFhNQb8o5Y9qexbsb5mC6gu29rfsKJuixKM2CGThBi4e5jH5rbm9TbYLuaK3QSFmZ3COw5OGE0udKFzJGSgiDorMWKsooGcnL4N3djT7Ps2PYfTm7U4Yxx9UqE+KGbP+D6wHRFw9HYmFdkQgrufrT3wBu7Q+On7qCV5gQZcPmZbcfCkeUQpyA+yzVJ+qc+deSleLt/sQy3v/er/upxI/O+S9OnJoLer96GdOIw7dryQ3nydLMDg2jm7I9kD862pWYBRf0nVSvasD9ACCUN9UG+aJQuMA8M0baeEjundyxcQUCqctX0qH9Ib9XVUeYLDD+tp9D/8AubhuDQLmBxRPGCBjvqNIeqDlB1gr2u99AUT8p9w2plru+gq6RhITsYdZHz+6tbdvzSFwHHybH+GkA31tuGVhcJ0LRvj+/F77ufA5wvHu70pkJDlroP439w/3OzB7CxjKvYiHC6Hdla0kWJu8pVsdrlXe/M1+lGwPB29LBnrtHpvI+v8rWIkknykT3r0N+ixxCDVjzowlmdgor7S3hVOP5vmq4uznjXFYl7ZD48AvECD5UC4LYZh71G3wDFSARVL+lhjnnTJRjfoQoNbFJb4+qpQNpFQyPwP/nRWwqilF1Y4U3KtPuQMSCh0RDbzho7CqZ4phcpQFOhwXv0nOv8jgZatCrwSwvI+K9OoadiIK3X38zykGcGBpMKJ4RwK7u/uNmxJLT4j9L1wEV0g0FGmGuSyfj3SmxJ+TV/OgMowIfphSkn8vCeXhTOTjo2hJIhhkjqtirUHp8SEAI+Kmgk5vVlt3WhpOoa1QJE2J6HbrX2wzrpxQeSJ6xm4fS85awupujeJ3BjO9/ylWArWEC2fMY9aMAJhItbq6P5xrF/Dr0aGyDPGGw656nkc8Tq0L+rquRgFgrG9Jo9yeC9lmOXub7vhcIvF6TZc/jwJUyjJyMyzNZC7V8PjhtHXsxhVmxB4PsJwKPg8JuZD6Cf0j++aX0SEDlcraASlrmTet0PpVQ8+VRFZwqvW+MpxdHFQg2rOI1P72zi3+JFdcq+01XjvT39GXuSZf+fcd8Ch45UTgDhu6ivNzgHnJgxE4C+z6Ja9KJOuy2O1zDRipxBLvIhqaptmICE4ww+vmnOMbU4EqZatx5sHa6nAn4BT6wDvXjJUXR0oyOcfF+w0mQIB43S76dt/zFvqROLi7TH1s/p974M3q1qky5OKkbxlxuclZA1ouMtH/qI8bwe2+lD3EuH0J/XQI1Qr2UnGmZaotUpDDGNLvYu6BIBSnlSCJMxZ+xzqytKuvUjP3If9M38m03p42bRkdnyAsypNPXOGciP124TCQg91GzQE1dcJJc2cZQU6NslFwD+ZxkMXHpSdO0cB6yUdfpoIdnfbtxta+d2nu0nLXLlIFLcN0/hHH2fpWmnbg5MDqYtLw39FeMhUyFTl/QRnvYNLa9dEzvylMKQHozqm50IIGAvGPZisnOfQUrlmxsfJtBoBYpXpb/Rl0ph1Mor6TKv9g5pbb/xEGYzxxokJAOV4EvkKkC9jr8cjW/UX10birvXUDUe/gDD8Haev/gTTanQzN0nOXzXWUZ6FrVvSvSZy58d1p2+HSJplbLADJ/kYie2Ph4gqEX4ngWQqNmPod4xnurlJXe7WIVEHC/wYx3fD9fNtWih3W3c/wJ/vwlREGgwWjl3vujzJUpLB3HdJu9FgOOHK9IEOn0XoaLe/ERZlExgiH+f/BZSmvfhKAzJLV9MxFUNawRtuqlqkWiHR2aEfacT5LBLc4VAeKO3rSmrxhLYaHnm0Q4PylvvWPxH094lPSC5sWQgyygfx0pPRRAYKZ+lL/0VnLVCzN7xhh3H4wCaGnql5rfu3ZVi1BWCcJZ0rOODifWR41jynTOEIFQ5YTZG/VN5ebWZn4nPYs3/1OOqHZJ9r8Nt4DjEKeoUkZpaJ0N2OWKZ9T8p9Kb8fuDEekQxYVInKli5t8rCoDIu4LykZYj1B/oyrDyFVFeaSrStmdCLo/5EsJAb1/L3H5ep/B1oAIFw4g+kva6op0VSh9TuY7lH4L/V9UGEF1FhAE1J+ApIU16LaVOg+CqnR0lspcDxdTwaND/ToCMqjyMUraIlS5qs+r9vpV+xqr0tmsclfHYY9mF+JT9WqZZzeCahoqdGIZr/yCWe6fM4G3KZu9lwPd3/5NUnRinklgVRp2eL900u4yqpkmePtolT0NqdUw1LDOJA2wX/NULKeXVfJxIOluC5o3T3YcCzk3KHUxY08jI39qG36bYG3GToGExu2G9iA66xXuCYXQsgX0M655kRKePPwTGAY7tkYwI59gEQ1/HsFokC/gcrgzNo2uBGMdxBYoIPmSSgb3GNr4Mv6hDPTC3RnYBrusWsKI62Q/KAE9Ukqw5zlpDdqx913D9tafE1sadeXyDmHZKmR8dqaRPTDQYcqGclarRnyt4Sbh7xbesElnM9mdG7e+yLf3d5/8z5Z6XK3AHYFG0CIikEIHwMdTrCzWtqhEhYl0viFEPDwJH2SvafYQhWfo28+8v16vpwa3BLkq9Z63GlbpLZFiRqeeNCbvNW847/IC+queQCipzX7x0/G2fkEMLKXRU++rm40w3aJi7rj0XCnZB4qbEOzH+HVEYlP1r52zgA0tloC5wpdrvuZrHX/IYFQP2BKwPDJnL65oXLsy51GEoZ/wXzJdLzAjY+d4ZskxXr1O4UNjxqY5ds9yY90xxJUL8FxKbcoY3d+0IeNWKkNQAk7mpeGoI1IxrpI4/oHrQjsf7NvlT9ojfMGVMp+eUjhuaSITabJRTgYSzeABWujo+Ag/Ok1G9tcidRngxzjqqMXxXwPFLLLlULbw82cuFfp5qMv+ZUeXr9lrvoM9W14doTkHTBfxGuYg1rRp8Z8JxZnXV4AbR80BsBhYlLAfhOigSXdVsQYf7EyaE+coY/F2eFKQvncxBd+dxvsmLjBRyA5+/9gpssuOfSbS7I75b5Xe8K0WiDInPD3br8HF5oicOPayvSJlOC3Xd07cKfEjjVNlQz7nuUImMTpySwwrzhDABTN6RsRus26AIaldOi+ECTwMB+shuE79bPJr57DcSJDwAEMv88kb9+z0GXcVYxizHlq1Ye4kgt1FV7dvqXvM6h1lfkENYfF6tNL6Yi1lkP2UFy4NDE+/DZVIIJTaCVpmIk4XQYfPeGGtfD/6zLXS77f17eg2MN0ttqnUHhOLgAclefVNPkjfqH8qefcpqjFdzxXpUnlOS+220KprS1dY0f0rc35GCDcTZj1FL1FTMn0+8SeFEOV9GlhxTsUFn2yW4livGNRLQpjWhnN30GkOXZw5RsZGFIFdFCLgJ+I0t/eZTdjdNW8G538HCSYPYIQrJH4KIwGXZET8R+HFE+T6W1IaJCwVU9CcGHnXuuoH2rNgpQUpY2uf1heMgQb8lB9kAzg2jCFuQSq4h+39LG/WN8bhUoezVOqPuiIzbbHzCxZ7erQPKzK5k24LW+bVM4AZ0vw2O9vGwCVOzaF3cGw/amURClhcKUZr+b5c8cc1R7IGCA3V+u5L9dofrlYGLMUaAkm6m06BETXEH5OBJSJmsNG69heTr4gmQdHQ8Kc5hQyTuVu5Pfv64CzFkhwWOShpha2f2TPfG1moV8amYjz8CHUBOZIe9EP+xiIRJ4JLSIb7VVOfSWEreh3MsIz9k+v+296bC6BK4kJXQkgLJgstEUuATV0/4CDMGmf13Sw2djLqON8wlXDLXyC10WaoLdbhalt4IuxEf+Z7nFlDIEBdwwqhi0JfaS4KIk3PbfB/kbxKTT3X/FrMltGBjp5bmX7gQEgf6CGyM9iUqVeCIeATy9eDrs6XjW4HPv3kYSqn9ssL3RBbVk92VJ3uC3AgGavRMs1Gf3NEvbAVqlceRWsGISkdM0w7bcPxwGjFbBvIBwO9HLrZPev3VBhPX1h/lzSHO+aUrXq99W7kKC/2NGbpoZ9XBAao0DD0iX1s5WUMjls2MdeSMl2jA9WXf6Z5Vvh+hmc580cbYwGj356XACKNxkvEzW0U7sOHq9TtOBm81masr6NLIOpt7Z7aqF3KPemLSLzR3IWgAvWP+DDH9pzvnllXABgiDAOyJGdpKgm6tEYtRqQUjqSEpSXWLMqO5z4R+hCqNew1o1tFO0JRYfr0cseD6ZOK5vW3riBPepqwvF8HdErmbu+6lKTDevewOcOu4etsuW4N7Jhp7CGYgDYmO3jJ6DYFMiNb+6fwRS/RZkJVfjg3/m7LU1zhkynz7JRpJT2/9a1a+nGl0rdwsf4tW38wopheAGI7aoNrrDOedhSlSGRmiFMfgqcSLaPVHjRXpbG6PoWZ+1MqWDn17sdKjwdh9KSywupC3tfwtWWEQFbxfyLluHHwmzYOTb+Ar+b4LQM4v6eK1usbbu9Tgkek/SCzP39QC38ItsHiUCCHmrx/Qp6wL1+DSvpEtRVGu3Z20nCv7Y/fLPmQRerEXK951LvS5vurTEANJ3MkziVW+UttyzlZu2n406pCOf2SIxcRyd3oM4QuKvqICKLPIq7XXQDbK4cSeFGmUDvEiJVUmqg98DYLZQPzjNEAVbK03tJRgMa/qql6blIPTD76NZb9QK7NqacoUh9J89GdBEEy6bIbiVK4JE4FbM3ADJVlUQG0KPKnAF188tI2Ak8qs9iuCKcpd+sLuSxoF+rvHkQPaiekivOcQBcfhmGJEj3n18bQ8KrFfHSokWBSTCf+s3664T6coYwwEefJcCzsweN5fB+4ZEV76PGiWt2DZPjgADb8QBR4MbCiMG09LxujgBCgWYNHGukQcfiSC69Cfiew7dioFIQO3yfUHBtOfzq6ic4ywbfupUKtvhmXlMSAy9aQiX9o4EDWCkwWSse6YrsvCth/UZOKBXZ146mh0AEu7BmN6pXyuIegu/Qh2CFjnrgX+HnE0COU+DelAaCP4/AV/Tj4WMqwZ2TzdM2Rk5Jscy8nrqKDp/mwGvRhcwsv/aqcSnAsWCPAttSAW5zpjAPsxqw3080LfW6FJAyfvE/VTdYioBVXf6TtOBGd6i6yz7WM6Nom/Ros0PSvVwvoKIHAqIGowd+J9m1foMdWRWWWq9Kf0hSCilu7+F+9ACJWqAnjvmIcgPuUfHhSLGJksCroha4sIB/9UKNduiq+ia7JBOKWkvA+iV6YjVpEegXwzRVm4tAZ+l9LpfoDbGk6n94nvexy+u3Dhryb5eKW9Tn68pjuG3KCNd4392eb64vlgoKyzVZ41F2WdDZkWlZuddzpWQgRFF/oBK4ZmFxRIzWe1h3JrM/Ckv3xJEnoUBYr2jamwm2UKEipIEXBR0y/1hFcCpGM/UN1bGJPgyfWRLwxiv/9bvmAg9J1B9fwUJCnfPzSXQyONS+AFrmsoFkt5LnOe0EBaVmnmf5XIRjPsOXYdYNIB59H93Pkhkf66SgVKfHsxnjyNxoLc5esVqV7P/s9/EXWtCnpWDN19UPNN8Dm7jDMp+MrQ8ip3yaDewyIspiEPCS+2AzhvEv8kIIImg1Lec86MpznBtbBSyx9D+fJsrQvFqsmMEy92bI3dSagloECE1UEOT/k11+BTIStdS8WZ2vGV0v0wPvwu9EwQHw+WLepRESiEgsF0hg1FzXLewKSHM+c4FuSacmAGPn6/WX0SAFsGZIyRYhyUUKK9KHN/PO/Hnp3bN01KwbVvmaqZTKzRpGGWfiznwITlchA+cXuenxID4cc0tRoxLZbv0+2hrvM4/cfI1bOUUKUmetaqOEDZZBsDGr1+gHhvzoqFpwEUAUxE8zf5jKtimSJ6uY2FzogBysnShv48seoXAh1ofmcL5Wue7gEGLCgQQJBl9cq+FKUpGAI6PuLsg9BvR7ds8Wf6V8Tncgl1xk4sh2ExnojKwVo7ZA70DU6caWH4J4cjJP1FWvMf/A8szTYLlwACSSAWLLq+jy0RaIf4Ouur6ST+2/gyNvMc4DX2PKsIc/J0ru3ft7o6wD4/O4Oi0q+InW64Hu64qJz9iGBPVUELygdWkzCudafhbGXVJ3iQAZtYL2KAt5iU4fgspGki6re7bQcxC3FEnXI1H3ZXjDE6jXA3wCVLvlw3NxeXLiTbXu86fvhPt1GUOy/GUhTxtRiTyW5XqIOcvjLPzSH17vDUTbA9ZX2DLg3gaVzXj1G7mjueJAKyBBHmkVa5zbcIEIamxSJiyRjs3PY3hSe9JLfVtHX8se2kJZuajjF4reHEAwagUhV5rCnzIZgE07pBq9sDP8oUecrM3WqEVACwuUgp3TFGsIY8b68maIYzLN4AbVKBhXXRE/gIOi/YJnXl77r4+YSkQsz31Gpgg3tC4Fm9m2NwivCSnVU1rKKXIzZ0KniE8/HgTHFrdbi7BJJbKsXg4DfonyJccCszv3EKAVr7TbnWWKP0QQ581Zi1fgqeF9J0oUMkvpaEGG+WFq0fuRKs2RejE2S7x76reb5Pkij8kjWM05r/KC3emU88AZQwEJ5yBmTV8qrtCasfYUrEc/gAq2iky3NIKZ/cOocKGPzjH0gzfVYJtIZiBbbx78PD6Mqf+BYENTsyaLLq9P0p3VJ4L6wZAa+ovz0GYBmLWssOz/kErgCZWy4VyEVvYYpg4oxu6XQDZp0YSoJoHul+9EKB9UdI5SuGWyjGvkGLSgNw77WwmUTLeEyL7ciqhN9ZLL0BnibnL7+7FrhZ8UkpciC+TiBDIvrF7MnKR1BBdkLxQMIujH4gunyhJIWalhi8Jxdq9AJ6rRaN0yvay2HCg9ZnImXGLOccR4EZ3SwAAAAAAAAAAAA==;" vertex="1" parent="3">
                    <mxGeometry x="570" y="123.35" width="143.67" height="203.3" as="geometry"/>
                </mxCell>
            </root>
        </mxGraphModel>
    </diagram>
</mxfile>